<?xml version="1.0" encoding="UTF-8" standalone="no"?>
<svg
   width="309pt"
   height="312pt"
   viewBox="0 0 185.4 187.2"
   version="1.1"
   id="svg33"
   sodipodi:docname="bean.svg"
   inkscape:version="1.1 (1:1.1+202105261517+ce6663b3b7)"
   xmlns:inkscape="http://www.inkscape.org/namespaces/inkscape"
   xmlns:sodipodi="http://sodipodi.sourceforge.net/DTD/sodipodi-0.dtd"
   xmlns:xlink="http://www.w3.org/1999/xlink"
   xmlns="http://www.w3.org/2000/svg"
   xmlns:svg="http://www.w3.org/2000/svg">
  <sodipodi:namedview
     id="namedview35"
     pagecolor="#ffffff"
     bordercolor="#666666"
     borderopacity="1.0"
     inkscape:pageshadow="2"
     inkscape:pageopacity="1"
     inkscape:pagecheckerboard="0"
     inkscape:document-units="pt"
     showgrid="false"
     scale-x="0.6"
     inkscape:showpageshadow="false"
     inkscape:zoom="1.7201087"
     inkscape:cx="220.04423"
     inkscape:cy="197.95261"
     inkscape:window-width="1848"
     inkscape:window-height="1016"
     inkscape:window-x="72"
     inkscape:window-y="27"
     inkscape:window-maximized="1"
     inkscape:current-layer="svg33" />
  <defs
     id="defs28">
    <clipPath
       id="clip1">
      <rect
         x="0"
         y="0"
         width="148"
         height="184"
         id="rect2" />
    </clipPath>
    <g
       id="surface5"
       clip-path="url(#clip1)">
      <path
         style="fill:none;stroke:#000000;stroke-width:0.711496;stroke-linecap:butt;stroke-linejoin:miter;stroke-miterlimit:10;stroke-dasharray:5.69197, 2.84598;stroke-opacity:1"
         d="M 96.550781,35.490404 76.710938,113.44353"
         transform="translate(-37,-21.771654)"
         id="path5" />
      <path
         style="fill:none;stroke:#000000;stroke-width:0.711496;stroke-linecap:butt;stroke-linejoin:miter;stroke-miterlimit:10;stroke-dasharray:5.69197, 2.84598;stroke-opacity:1"
         d="m 123.48047,35.490404 21.26172,77.953126"
         transform="translate(-37,-21.771654)"
         id="path7" />
      <path
         style="fill:#d75e7d;fill-opacity:0.501961;fill-rule:nonzero;stroke:#d75e7d;stroke-width:0.348661;stroke-linecap:butt;stroke-linejoin:miter;stroke-miterlimit:4;stroke-opacity:1"
         d="M 104.02344,204.76384 C 89.828125,203.38494 75.652344,198.15837 64.929688,190.3615 50.378906,179.77556 41.050781,165.68962 38.355469,150.2365 c -0.3125,-1.79688 -0.421875,-3.60938 -0.40625,-6.8086 0.01563,-3.73437 0.109375,-4.78515 0.640625,-7.27734 2.355468,-11.0625 9.464844,-18.90625 19.789062,-21.82812 4.46875,-1.26172 9.484375,-1.57032 14.472656,-0.88282 6.023438,0.83203 10.417969,2.07813 21.53125,6.07813 7.082028,2.54297 9.753908,3.26953 13.652348,3.69531 5.98437,0.66016 10.15625,-0.18359 21.63281,-4.35937 14.29297,-5.20704 21.99609,-6.60547 29.8125,-5.40625 9.74219,1.49609 16.82422,6.32031 21.0664,14.35546 5,9.46094 5.00391,21.25391 0.0156,33.63672 -5.92969,14.71485 -18.51563,27.67188 -34.43359,35.44922 -7.53516,3.67578 -14.56641,5.85156 -23.75391,7.35156 -2.70703,0.44922 -15.43359,0.80079 -18.35156,0.52344 z m 0,0"
         transform="translate(-37,-21.771654)"
         id="path9" />
      <path
         style="fill:#000000;fill-opacity:1;fill-rule:nonzero;stroke:none"
         d="m 60.585938,13.71875 c 0,0.621094 -0.503907,1.125 -1.125,1.125 -0.621094,0 -1.125,-0.503906 -1.125,-1.125 0,-0.621094 0.503906,-1.125 1.125,-1.125 0.621093,0 1.125,0.503906 1.125,1.125 z m 0,0"
         id="path11" />
      <path
         style="fill:#000000;fill-opacity:1;fill-rule:nonzero;stroke:none"
         d="m 87.730469,13.71875 c 0,0.621094 -0.503907,1.125 -1.125,1.125 -0.621094,0 -1.125,-0.503906 -1.125,-1.125 0,-0.621094 0.503906,-1.125 1.125,-1.125 0.621093,0 1.125,0.503906 1.125,1.125 z m 0,0"
         id="path13" />
      <path
         style="fill:#000000;fill-opacity:1;fill-rule:nonzero;stroke:none"
         d="m 40.605469,92.269531 c 0,0.621094 -0.503907,1.125 -1.125,1.125 -0.621094,0 -1.125,-0.503906 -1.125,-1.125 0,-0.621093 0.503906,-1.125 1.125,-1.125 0.621093,0 1.125,0.503907 1.125,1.125 z m 0,0"
         id="path15" />
      <path
         style="fill:#000000;fill-opacity:1;fill-rule:nonzero;stroke:none"
         d="m 109.05078,92.363281 c 0,0.617188 -0.5039,1.125 -1.125,1.125 -0.62109,0 -1.125,-0.507812 -1.125,-1.125 0,-0.621093 0.50391,-1.125 1.125,-1.125 0.6211,0 1.125,0.503907 1.125,1.125 z m 0,0"
         id="path17" />
      <path
         style="fill:#000000;fill-opacity:1;fill-rule:nonzero;stroke:none"
         d="m 62.277344,3.890625 c 0.04687,-0.140625 0.04687,-0.152344 0.04687,-0.230469 0,-0.171875 -0.140625,-0.269531 -0.296875,-0.269531 -0.09375,0 -0.25,0.066406 -0.34375,0.203125 -0.01563,0.066406 -0.109375,0.363281 -0.140625,0.546875 -0.07813,0.25 -0.140625,0.53125 -0.203125,0.796875 l -0.453125,1.800781 c -0.03125,0.136719 -0.46875,0.84375 -1.125,0.84375 -0.5,0 -0.609375,-0.441406 -0.609375,-0.816406 0,-0.453125 0.171875,-1.078125 0.5,-1.953125 0.15625,-0.402344 0.203125,-0.515625 0.203125,-0.71875 0,-0.433594 -0.3125,-0.808594 -0.8125,-0.808594 -0.953125,0 -1.3125,1.453125 -1.3125,1.527344 0,0.109375 0.09375,0.109375 0.109375,0.109375 0.109375,0 0.109375,-0.03125 0.15625,-0.183594 C 58.277344,3.796875 58.667969,3.5 59.011719,3.5 c 0.07813,0 0.25,0 0.25,0.3125 0,0.25 -0.109375,0.519531 -0.171875,0.703125 -0.40625,1.066406 -0.578125,1.625 -0.578125,2.097656 0,0.886719 0.625,1.183594 1.21875,1.183594 0.390625,0 0.71875,-0.171875 1,-0.453125 -0.125,0.519531 -0.25,1.019531 -0.640625,1.546875 -0.265625,0.328125 -0.640625,0.625 -1.09375,0.625 -0.140625,0 -0.59375,-0.027344 -0.765625,-0.421875 0.15625,0 0.296875,0 0.421875,-0.125 0.109375,-0.078125 0.203125,-0.21875 0.203125,-0.40625 0,-0.3125 -0.265625,-0.34375 -0.359375,-0.34375 -0.234375,0 -0.5625,0.15625 -0.5625,0.644531 0,0.5 0.4375,0.875 1.0625,0.875 1.015625,0 2.046875,-0.90625 2.328125,-2.03125 z m 0,0"
         id="path19" />
      <path
         style="fill:#000000;fill-opacity:1;fill-rule:nonzero;stroke:none"
         d="m 88.835938,1.074219 -0.15625,-0.144531 c 0,0 -0.375,0.46875 -0.8125,0.46875 -0.234376,0 -0.484376,-0.140626 -0.65625,-0.25 -0.265626,-0.152344 -0.4375,-0.21875 -0.609376,-0.21875 -0.375,0 -0.578124,0.21875 -1.078124,0.78125 l 0.15625,0.140624 c 0,0 0.375,-0.46875 0.8125,-0.46875 0.234374,0 0.484374,0.140626 0.65625,0.238282 0.265624,0.167968 0.453124,0.230468 0.625,0.230468 0.375,0 0.5625,-0.21875 1.0625,-0.777343 z m 0,0"
         id="path21" />
      <path
         style="fill:#000000;fill-opacity:1;fill-rule:nonzero;stroke:none"
         d="m 88.855469,3.789062 c 0.04687,-0.140624 0.04687,-0.15625 0.04687,-0.234374 0,-0.171876 -0.140625,-0.265626 -0.296875,-0.265626 -0.09375,0 -0.25,0.0625 -0.34375,0.207032 -0.01563,0.058594 -0.109375,0.355468 -0.140625,0.542968 -0.07813,0.25 -0.140625,0.535157 -0.203125,0.796876 l -0.453125,1.796874 c -0.03125,0.140626 -0.46875,0.84375 -1.125,0.84375 -0.5,0 -0.609375,-0.4375 -0.609375,-0.808593 0,-0.457031 0.171875,-1.082031 0.5,-1.957031 0.15625,-0.40625 0.203125,-0.511719 0.203125,-0.714844 0,-0.441406 -0.3125,-0.816406 -0.8125,-0.816406 -0.953125,0 -1.3125,1.453124 -1.3125,1.53125 0,0.113281 0.09375,0.113281 0.109375,0.113281 0.109375,0 0.109375,-0.035157 0.15625,-0.191407 0.28125,-0.933593 0.671875,-1.234374 1.015625,-1.234374 0.07813,0 0.25,0 0.25,0.3125 0,0.25 -0.109375,0.515624 -0.171875,0.707031 -0.40625,1.058593 -0.578125,1.621093 -0.578125,2.089843 0,0.890626 0.625,1.191407 1.21875,1.191407 0.390625,0 0.71875,-0.175781 1,-0.453125 -0.125,0.511718 -0.25,1.011718 -0.640625,1.542968 -0.265625,0.332032 -0.640625,0.628907 -1.09375,0.628907 -0.140625,0 -0.59375,-0.035157 -0.765625,-0.421875 0.15625,0 0.296875,0 0.421875,-0.125 0.109375,-0.082032 0.203125,-0.222656 0.203125,-0.410156 0,-0.3125 -0.265625,-0.339844 -0.359375,-0.339844 -0.234375,0 -0.5625,0.152344 -0.5625,0.636718 0,0.5 0.4375,0.875 1.0625,0.875 1.015625,0 2.046875,-0.90625 2.328125,-2.03125 z m 0,0"
         id="path23" />
      <path
         style="fill:#000000;fill-opacity:1;fill-rule:nonzero;stroke:none"
         d="m 130.95703,141.08203 c 0,-0.0312 -0.0156,-0.10937 -0.10937,-0.10937 -0.0312,0 -0.0469,0.0195 -0.15625,0.125 l -0.6875,0.76953 c -0.0937,-0.14453 -0.54688,-0.89453 -1.65625,-0.89453 -2.23438,0 -4.46875,2.20312 -4.46875,4.51953 0,1.63672 1.17187,2.73047 2.70312,2.73047 0.85938,0 1.625,-0.39063 2.15625,-0.85547 0.92188,-0.81641 1.09375,-1.72266 1.09375,-1.75 0,-0.11328 -0.10937,-0.11328 -0.125,-0.11328 -0.0625,0 -0.10937,0.0352 -0.125,0.11328 -0.0937,0.27734 -0.32812,1 -1.01562,1.57422 -0.6875,0.55078 -1.3125,0.72265 -1.82813,0.72265 -0.89062,0 -1.95312,-0.51953 -1.95312,-2.0664 0,-0.57813 0.20312,-2.1836 1.20312,-3.35547 0.60938,-0.70313 1.54688,-1.20313 2.4375,-1.20313 1.01563,0 1.60938,0.76172 1.60938,1.91797 0,0.41016 -0.0312,0.41016 -0.0312,0.51563 0,0.0937 0.10937,0.0937 0.14062,0.0937 0.125,0 0.125,-0.0156 0.1875,-0.19922 z m 0,0"
         id="path25" />
    </g>
  </defs>
  <g
     id="surface1"
     transform="translate(17.276072,-0.23228907)">
    <use
       xlink:href="#surface5"
       id="use30"
       x="0"
       y="0"
       width="100%"
       height="100%" />
  </g>
</svg>
