<?xml version="1.0" encoding="UTF-8" standalone="no"?>
<svg
   width="309pt"
   height="312pt"
   viewBox="0 0 185.4 187.2"
   version="1.1"
   id="svg33"
   sodipodi:docname="convex.svg"
   inkscape:version="1.1 (1:1.1+202105261517+ce6663b3b7)"
   xmlns:inkscape="http://www.inkscape.org/namespaces/inkscape"
   xmlns:sodipodi="http://sodipodi.sourceforge.net/DTD/sodipodi-0.dtd"
   xmlns:xlink="http://www.w3.org/1999/xlink"
   xmlns="http://www.w3.org/2000/svg"
   xmlns:svg="http://www.w3.org/2000/svg">
  <sodipodi:namedview
     id="namedview35"
     pagecolor="#ffffff"
     bordercolor="#666666"
     borderopacity="1.0"
     inkscape:pageshadow="2"
     inkscape:pageopacity="1"
     inkscape:pagecheckerboard="0"
     inkscape:document-units="pt"
     showgrid="false"
     scale-x="0.7"
     inkscape:zoom="1.1967877"
     inkscape:cx="108.20633"
     inkscape:cy="204.29689"
     inkscape:window-width="1848"
     inkscape:window-height="1016"
     inkscape:window-x="72"
     inkscape:window-y="27"
     inkscape:window-maximized="1"
     inkscape:current-layer="svg33"
     inkscape:showpageshadow="false" />
  <defs
     id="defs28">
    <clipPath
       id="clip1">
      <rect
         x="0"
         y="0"
         width="146"
         height="187"
         id="rect2" />
    </clipPath>
    <g
       id="surface5"
       clip-path="url(#clip1)">
      <path
         style="fill:#d75e7d;fill-opacity:0.501961;fill-rule:nonzero;stroke:#d75c7d;stroke-width:0.348661;stroke-linecap:butt;stroke-linejoin:miter;stroke-miterlimit:10;stroke-opacity:0.501961"
         d="m 186.57031,156.01384 c 0.28516,-26.73047 -31.98047,-48.71875 -72.0664,-49.11719 -40.085941,-0.40234 -72.812504,20.94141 -73.09766,47.66797 -0.285156,26.72657 31.980469,48.71485 72.06641,49.11719 40.08593,0.39453 72.8125,-20.94531 73.09765,-47.66797 z m 0,0"
         transform="translate(-41,-17.771654)"
         id="path5" />
      <path
         style="fill:#000000;fill-opacity:1;fill-rule:nonzero;stroke:none"
         d="m 120.07422,149.92187 c 0,-0.0312 -0.0156,-0.10937 -0.10938,-0.10937 -0.0312,0 -0.0469,0.0195 -0.15625,0.125 l -0.6875,0.76953 c -0.0937,-0.14453 -0.54687,-0.89453 -1.65625,-0.89453 -2.23437,0 -4.46875,2.20312 -4.46875,4.51953 0,1.63672 1.17188,2.73047 2.70313,2.73047 0.85937,0 1.625,-0.39063 2.15625,-0.85547 0.92187,-0.81641 1.09375,-1.71875 1.09375,-1.75 0,-0.11328 -0.10938,-0.11328 -0.125,-0.11328 -0.0625,0 -0.10938,0.0312 -0.125,0.11328 -0.0937,0.28125 -0.32813,1 -1.01563,1.57813 -0.6875,0.54687 -1.3125,0.71484 -1.82812,0.71484 -0.89063,0 -1.95313,-0.51172 -1.95313,-2.0625 0,-0.57422 0.20313,-2.1875 1.20313,-3.35547 0.60937,-0.70703 1.54687,-1.20703 2.4375,-1.20703 1.01562,0 1.60937,0.76562 1.60937,1.92187 0,0.41016 -0.0312,0.41016 -0.0312,0.51563 0,0.0977 0.10938,0.0977 0.14063,0.0977 0.125,0 0.125,-0.0195 0.1875,-0.20313 z m 0,0"
         id="path7" />
      <path
         style="fill:none;stroke:#000000;stroke-width:0.60967;stroke-linecap:butt;stroke-linejoin:miter;stroke-miterlimit:10;stroke-dasharray:4.87735, 2.43867;stroke-opacity:1"
         d="M 82.890625,30.205248 97.027344,108.29119"
         transform="translate(-41,-17.771654)"
         id="path9" />
      <path
         style="fill:none;stroke:#000000;stroke-width:0.60967;stroke-linecap:butt;stroke-linejoin:miter;stroke-miterlimit:10;stroke-dasharray:4.87735, 2.43867;stroke-opacity:1"
         d="M 145.08594,30.205248 130.94922,108.29119"
         transform="translate(-41,-17.771654)"
         id="path11" />
      <path
         style="fill:#000000;fill-opacity:1;fill-rule:nonzero;stroke:none"
         d="m 43.015625,12.433594 c 0,0.621094 -0.503906,1.125 -1.125,1.125 -0.621094,0 -1.125,-0.503906 -1.125,-1.125 0,-0.621094 0.503906,-1.125 1.125,-1.125 0.621094,0 1.125,0.503906 1.125,1.125 z m 0,0"
         id="path13" />
      <path
         style="fill:#000000;fill-opacity:1;fill-rule:nonzero;stroke:none"
         d="m 57.152344,90.519531 c 0,0.621094 -0.503906,1.125 -1.125,1.125 -0.621094,0 -1.125,-0.503906 -1.125,-1.125 0,-0.621093 0.503906,-1.125 1.125,-1.125 0.621094,0 1.125,0.503907 1.125,1.125 z m 0,0"
         id="path15" />
      <path
         style="fill:#000000;fill-opacity:1;fill-rule:nonzero;stroke:none"
         d="m 91.074219,90.519531 c 0,0.621094 -0.503907,1.125 -1.125,1.125 -0.621094,0 -1.125,-0.503906 -1.125,-1.125 0,-0.621093 0.503906,-1.125 1.125,-1.125 0.621093,0 1.125,0.503907 1.125,1.125 z m 0,0"
         id="path17" />
      <path
         style="fill:#000000;fill-opacity:1;fill-rule:nonzero;stroke:none"
         d="m 105.21094,12.433594 c 0,0.621094 -0.50391,1.125 -1.125,1.125 -0.6211,0 -1.125,-0.503906 -1.125,-1.125 0,-0.621094 0.5039,-1.125 1.125,-1.125 0.62109,0 1.125,0.503906 1.125,1.125 z m 0,0"
         id="path19" />
      <path
         style="fill:#000000;fill-opacity:1;fill-rule:nonzero;stroke:none"
         d="m 43.9375,2.464844 c 0.04687,-0.136719 0.04687,-0.15625 0.04687,-0.234375 0,-0.171875 -0.140625,-0.265625 -0.296875,-0.265625 -0.09375,0 -0.25,0.066406 -0.34375,0.203125 C 43.328115,2.230469 43.23437,2.53125 43.20312,2.714844 43.125,2.964844 43.0625,3.25 43,3.511719 l -0.453125,1.796875 c -0.03125,0.144531 -0.46875,0.847656 -1.125,0.847656 -0.5,0 -0.609375,-0.441406 -0.609375,-0.816406 0,-0.453125 0.171875,-1.078125 0.5,-1.953125 0.15625,-0.40625 0.203125,-0.511719 0.203125,-0.71875 0,-0.4375 -0.3125,-0.8125 -0.8125,-0.8125 -0.953125,0 -1.3125,1.453125 -1.3125,1.53125 C 39.390625,3.5 39.484375,3.5 39.5,3.5 39.609375,3.5 39.609375,3.464844 39.65625,3.308594 39.9375,2.375 40.328125,2.078125 40.671875,2.078125 c 0.07813,0 0.25,0 0.25,0.308594 0,0.25 -0.109375,0.519531 -0.171875,0.703125 -0.40625,1.066406 -0.578125,1.625 -0.578125,2.09375 0,0.894531 0.625,1.191406 1.21875,1.191406 0.390625,0 0.71875,-0.171875 1,-0.457031 -0.125,0.515625 -0.25,1.015625 -0.640625,1.546875 -0.265625,0.328125 -0.640625,0.625 -1.09375,0.625 -0.140625,0 -0.59375,-0.03125 -0.765625,-0.421875 0.15625,0 0.296875,0 0.421875,-0.125 0.109375,-0.078125 0.203125,-0.214844 0.203125,-0.40625 0,-0.308594 -0.265625,-0.34375 -0.359375,-0.34375 -0.234375,0 -0.5625,0.160156 -0.5625,0.640625 0,0.5 0.4375,0.875 1.0625,0.875 1.015625,0 2.046875,-0.902344 2.328125,-2.027344 z m 0,0"
         id="path21" />
      <path
         style="fill:#000000;fill-opacity:1;fill-rule:nonzero;stroke:none"
         d="m 107.12891,0.507812 -0.15625,-0.136718 c 0,0 -0.375,0.464844 -0.8125,0.464844 -0.23438,0 -0.48438,-0.136719 -0.65625,-0.25 -0.26563,-0.15625 -0.4375,-0.214844 -0.60938,-0.214844 -0.375,0 -0.57812,0.214844 -1.07812,0.777344 l 0.15625,0.140624 c 0,0 0.375,-0.464843 0.8125,-0.464843 0.23437,0 0.48437,0.136719 0.65625,0.230469 0.26562,0.171874 0.45312,0.234374 0.625,0.234374 0.375,0 0.5625,-0.214843 1.0625,-0.78125 z m 0,0"
         id="path23" />
      <path
         style="fill:#000000;fill-opacity:1;fill-rule:nonzero;stroke:none"
         d="m 107.14844,2.660156 c 0.0469,-0.144531 0.0469,-0.160156 0.0469,-0.238281 0,-0.171875 -0.14062,-0.261719 -0.29687,-0.261719 -0.0937,0 -0.25,0.058594 -0.34375,0.203125 -0.0156,0.058594 -0.10938,0.355469 -0.14063,0.546875 -0.0781,0.25 -0.14062,0.527344 -0.20312,0.796875 L 105.75781,5.5 c -0.0312,0.140625 -0.46875,0.84375 -1.125,0.84375 -0.5,0 -0.60937,-0.433594 -0.60937,-0.808594 0,-0.453125 0.17187,-1.078125 0.5,-1.953125 0.15625,-0.410156 0.20312,-0.519531 0.20312,-0.71875 0,-0.441406 -0.3125,-0.816406 -0.8125,-0.816406 -0.95312,0 -1.3125,1.453125 -1.3125,1.535156 0,0.105469 0.0937,0.105469 0.10938,0.105469 0.10937,0 0.10937,-0.027344 0.15625,-0.1875 0.28125,-0.9375 0.67187,-1.234375 1.01562,-1.234375 0.0781,0 0.25,0 0.25,0.316406 0,0.25 -0.10937,0.511719 -0.17187,0.703125 -0.40625,1.058594 -0.57813,1.625 -0.57813,2.089844 0,0.890625 0.625,1.1875 1.21875,1.1875 0.39063,0 0.71875,-0.171875 1,-0.449219 -0.125,0.511719 -0.25,1.011719 -0.64062,1.546875 -0.26563,0.328125 -0.64063,0.625 -1.09375,0.625 -0.14063,0 -0.59375,-0.035156 -0.76563,-0.421875 0.15625,0 0.29688,0 0.42188,-0.125 0.10937,-0.078125 0.20312,-0.222656 0.20312,-0.40625 0,-0.316406 -0.26562,-0.34375 -0.35937,-0.34375 -0.23438,0 -0.5625,0.152344 -0.5625,0.636719 0,0.5 0.4375,0.875 1.0625,0.875 1.01562,0 2.04687,-0.90625 2.32812,-2.03125 z m 0,0"
         id="path25" />
    </g>
  </defs>
  <g
     id="surface1"
     transform="translate(20.451838,0.27617987)">
    <use
       xlink:href="#surface5"
       id="use30"
       x="0"
       y="0"
       width="100%"
       height="100%" />
  </g>
</svg>
