<?xml version="1.0" encoding="UTF-8" standalone="no"?>
<!-- Created with Inkscape (http://www.inkscape.org/) -->

<svg
   width="100mm"
   height="80mm"
   viewBox="0 0 100 80"
   version="1.1"
   id="svg85723"
   sodipodi:docname="convex-fixed.svg"
   inkscape:version="1.3.2 (091e20e, 2023-11-25)"
   xmlns:inkscape="http://www.inkscape.org/namespaces/inkscape"
   xmlns:sodipodi="http://sodipodi.sourceforge.net/DTD/sodipodi-0.dtd"
   xmlns="http://www.w3.org/2000/svg"
   xmlns:svg="http://www.w3.org/2000/svg"
   xmlns:ns1="http://www.iki.fi/pav/software/textext/">
  <sodipodi:namedview
     id="namedview1"
     pagecolor="#ffffff"
     bordercolor="#000000"
     borderopacity="0.25"
     inkscape:showpageshadow="2"
     inkscape:pageopacity="0.0"
     inkscape:pagecheckerboard="0"
     inkscape:deskcolor="#d1d1d1"
     inkscape:document-units="mm"
     inkscape:zoom="1.2567708"
     inkscape:cx="149.19188"
     inkscape:cy="178.23457"
     inkscape:window-width="1456"
     inkscape:window-height="911"
     inkscape:window-x="146"
     inkscape:window-y="141"
     inkscape:window-maximized="0"
     inkscape:current-layer="svg85723" />
  <defs
     id="defs85720">
    <g
       id="g84182">
      <symbol
         overflow="visible"
         id="symbol84176">
        <path
           style="stroke:none;stroke-width:0"
           d=""
           id="path84174" />
      </symbol>
      <symbol
         overflow="visible"
         id="symbol84180">
        <path
           style="stroke:none;stroke-width:0"
           d="m 7.578125,-6.921875 c 0,-0.03125 -0.015625,-0.109375 -0.109375,-0.109375 -0.03125,0 -0.046875,0.015625 -0.15625,0.125 L 6.625,-6.140625 C 6.53125,-6.28125 6.078125,-7.03125 4.96875,-7.03125 2.734375,-7.03125 0.5,-4.828125 0.5,-2.515625 0.5,-0.875 1.671875,0.21875 3.203125,0.21875 c 0.859375,0 1.625,-0.390625 2.15625,-0.859375 0.921875,-0.8125 1.09375,-1.71875 1.09375,-1.75 C 6.453125,-2.5 6.34375,-2.5 6.328125,-2.5 c -0.0625,0 -0.109375,0.03125 -0.125,0.109375 -0.09375,0.28125 -0.328125,1 -1.015625,1.578125 -0.6875,0.546875 -1.3125,0.71875 -1.828125,0.71875 -0.890625,0 -1.953125,-0.515625 -1.953125,-2.0625 0,-0.578125 0.203125,-2.1875 1.203125,-3.359375 0.609375,-0.703125 1.546875,-1.203125 2.4375,-1.203125 1.015625,0 1.609375,0.765625 1.609375,1.921875 0,0.40625 -0.03125,0.40625 -0.03125,0.515625 0,0.09375 0.109375,0.09375 0.140625,0.09375 0.125,0 0.125,-0.015625 0.1875,-0.203125 z m 0,0"
           id="path84178" />
      </symbol>
    </g>
    <g
       id="g84528">
      <symbol
         overflow="visible"
         id="symbol84522">
        <path
           style="stroke:none;stroke-width:0"
           d=""
           id="path84520" />
      </symbol>
      <symbol
         overflow="visible"
         id="symbol84526">
        <path
           style="stroke:none;stroke-width:0"
           d="m 4.84375,-3.796875 c 0.046875,-0.140625 0.046875,-0.15625 0.046875,-0.234375 0,-0.171875 -0.140625,-0.265625 -0.296875,-0.265625 -0.09375,0 -0.25,0.0625 -0.34375,0.203125 -0.015625,0.0625 -0.109375,0.359375 -0.140625,0.546875 -0.078125,0.25 -0.140625,0.53125 -0.203125,0.796875 l -0.453125,1.796875 c -0.03125,0.140625 -0.46875,0.84375 -1.125,0.84375 -0.5,0 -0.609375,-0.4375 -0.609375,-0.8125 C 1.71875,-1.375 1.890625,-2 2.21875,-2.875 2.375,-3.28125 2.421875,-3.390625 2.421875,-3.59375 c 0,-0.4375 -0.3125,-0.8125 -0.8125,-0.8125 -0.953125,0 -1.3125,1.453125 -1.3125,1.53125 0,0.109375 0.09375,0.109375 0.109375,0.109375 0.109375,0 0.109375,-0.03125 0.15625,-0.1875 0.28125,-0.9375 0.671875,-1.234375 1.015625,-1.234375 0.078125,0 0.25,0 0.25,0.3125 0,0.25 -0.109375,0.515625 -0.171875,0.703125 -0.40625,1.0625 -0.578125,1.625 -0.578125,2.09375 0,0.890625 0.625,1.1875 1.21875,1.1875 0.390625,0 0.71875,-0.171875 1,-0.453125 -0.125,0.515625 -0.25,1.015625 -0.640625,1.546875 -0.265625,0.328125 -0.640625,0.625 -1.09375,0.625 -0.140625,0 -0.59375,-0.03125 -0.765625,-0.421875 0.15625,0 0.296875,0 0.421875,-0.125 C 1.328125,1.203125 1.421875,1.0625 1.421875,0.875 1.421875,0.5625 1.15625,0.53125 1.0625,0.53125 0.828125,0.53125 0.5,0.6875 0.5,1.171875 c 0,0.5 0.4375,0.875 1.0625,0.875 1.015625,0 2.046875,-0.90625 2.328125,-2.03125 z m 0,0"
           id="path84524" />
      </symbol>
    </g>
    <g
       id="g84687">
      <symbol
         overflow="visible"
         id="symbol84673">
        <path
           style="stroke:none;stroke-width:0"
           d=""
           id="path84671" />
      </symbol>
      <symbol
         overflow="visible"
         id="symbol84677">
        <path
           style="stroke:none;stroke-width:0"
           d="M 4.140625,-6.515625 3.984375,-6.65625 c 0,0 -0.375,0.46875 -0.8125,0.46875 -0.234375,0 -0.484375,-0.140625 -0.65625,-0.25 C 2.25,-6.59375 2.078125,-6.65625 1.90625,-6.65625 c -0.375,0 -0.578125,0.21875 -1.078125,0.78125 l 0.15625,0.140625 c 0,0 0.375,-0.46875 0.8125,-0.46875 0.234375,0 0.484375,0.140625 0.65625,0.234375 0.265625,0.171875 0.453125,0.234375 0.625,0.234375 0.375,0 0.5625,-0.21875 1.0625,-0.78125 z m 0,0"
           id="path84675" />
      </symbol>
      <symbol
         overflow="visible"
         id="symbol84681">
        <path
           style="stroke:none;stroke-width:0"
           d=""
           id="path84679" />
      </symbol>
      <symbol
         overflow="visible"
         id="symbol84685">
        <path
           style="stroke:none;stroke-width:0"
           d="m 4.84375,-3.796875 c 0.046875,-0.140625 0.046875,-0.15625 0.046875,-0.234375 0,-0.171875 -0.140625,-0.265625 -0.296875,-0.265625 -0.09375,0 -0.25,0.0625 -0.34375,0.203125 -0.015625,0.0625 -0.109375,0.359375 -0.140625,0.546875 -0.078125,0.25 -0.140625,0.53125 -0.203125,0.796875 l -0.453125,1.796875 c -0.03125,0.140625 -0.46875,0.84375 -1.125,0.84375 -0.5,0 -0.609375,-0.4375 -0.609375,-0.8125 C 1.71875,-1.375 1.890625,-2 2.21875,-2.875 2.375,-3.28125 2.421875,-3.390625 2.421875,-3.59375 c 0,-0.4375 -0.3125,-0.8125 -0.8125,-0.8125 -0.953125,0 -1.3125,1.453125 -1.3125,1.53125 0,0.109375 0.09375,0.109375 0.109375,0.109375 0.109375,0 0.109375,-0.03125 0.15625,-0.1875 0.28125,-0.9375 0.671875,-1.234375 1.015625,-1.234375 0.078125,0 0.25,0 0.25,0.3125 0,0.25 -0.109375,0.515625 -0.171875,0.703125 -0.40625,1.0625 -0.578125,1.625 -0.578125,2.09375 0,0.890625 0.625,1.1875 1.21875,1.1875 0.390625,0 0.71875,-0.171875 1,-0.453125 -0.125,0.515625 -0.25,1.015625 -0.640625,1.546875 -0.265625,0.328125 -0.640625,0.625 -1.09375,0.625 -0.140625,0 -0.59375,-0.03125 -0.765625,-0.421875 0.15625,0 0.296875,0 0.421875,-0.125 C 1.328125,1.203125 1.421875,1.0625 1.421875,0.875 1.421875,0.5625 1.15625,0.53125 1.0625,0.53125 0.828125,0.53125 0.5,0.6875 0.5,1.171875 c 0,0.5 0.4375,0.875 1.0625,0.875 1.015625,0 2.046875,-0.90625 2.328125,-2.03125 z m 0,0"
           id="path84683" />
      </symbol>
    </g>
    <g
       id="id-67b00742-b71c-4ba5-be60-309b6b182fd3">
      <symbol
         overflow="visible"
         id="id-1d1e71a5-eb8d-4e5c-9df2-217b7df07612">
        <path
           style="stroke:none;stroke-width:0"
           d=""
           id="id-eafa4b01-1d53-44b8-8fb1-fe808368afff" />
      </symbol>
      <symbol
         overflow="visible"
         id="id-d23030d0-0201-425a-8f2a-51f0d6945e23">
        <path
           style="stroke:none;stroke-width:0"
           d="M 4.140625,-6.515625 3.984375,-6.65625 c 0,0 -0.375,0.46875 -0.8125,0.46875 -0.234375,0 -0.484375,-0.140625 -0.65625,-0.25 C 2.25,-6.59375 2.078125,-6.65625 1.90625,-6.65625 c -0.375,0 -0.578125,0.21875 -1.078125,0.78125 l 0.15625,0.140625 c 0,0 0.375,-0.46875 0.8125,-0.46875 0.234375,0 0.484375,0.140625 0.65625,0.234375 0.265625,0.171875 0.453125,0.234375 0.625,0.234375 0.375,0 0.5625,-0.21875 1.0625,-0.78125 z m 0,0"
           id="id-6527ada2-c57a-4c99-8706-3f6c95ae15ba" />
      </symbol>
      <symbol
         overflow="visible"
         id="id-446d1298-22a8-42b3-80d5-fe6d11ca8310">
        <path
           style="stroke:none;stroke-width:0"
           d=""
           id="id-847cfb0f-2ccf-466d-803d-3ced0780f772" />
      </symbol>
      <symbol
         overflow="visible"
         id="id-3aabbe92-89a9-4466-9745-129dc15b9a73">
        <path
           style="stroke:none;stroke-width:0"
           d="m 4.84375,-3.796875 c 0.046875,-0.140625 0.046875,-0.15625 0.046875,-0.234375 0,-0.171875 -0.140625,-0.265625 -0.296875,-0.265625 -0.09375,0 -0.25,0.0625 -0.34375,0.203125 -0.015625,0.0625 -0.109375,0.359375 -0.140625,0.546875 -0.078125,0.25 -0.140625,0.53125 -0.203125,0.796875 l -0.453125,1.796875 c -0.03125,0.140625 -0.46875,0.84375 -1.125,0.84375 -0.5,0 -0.609375,-0.4375 -0.609375,-0.8125 C 1.71875,-1.375 1.890625,-2 2.21875,-2.875 2.375,-3.28125 2.421875,-3.390625 2.421875,-3.59375 c 0,-0.4375 -0.3125,-0.8125 -0.8125,-0.8125 -0.953125,0 -1.3125,1.453125 -1.3125,1.53125 0,0.109375 0.09375,0.109375 0.109375,0.109375 0.109375,0 0.109375,-0.03125 0.15625,-0.1875 0.28125,-0.9375 0.671875,-1.234375 1.015625,-1.234375 0.078125,0 0.25,0 0.25,0.3125 0,0.25 -0.109375,0.515625 -0.171875,0.703125 -0.40625,1.0625 -0.578125,1.625 -0.578125,2.09375 0,0.890625 0.625,1.1875 1.21875,1.1875 0.390625,0 0.71875,-0.171875 1,-0.453125 -0.125,0.515625 -0.25,1.015625 -0.640625,1.546875 -0.265625,0.328125 -0.640625,0.625 -1.09375,0.625 -0.140625,0 -0.59375,-0.03125 -0.765625,-0.421875 0.15625,0 0.296875,0 0.421875,-0.125 C 1.328125,1.203125 1.421875,1.0625 1.421875,0.875 1.421875,0.5625 1.15625,0.53125 1.0625,0.53125 0.828125,0.53125 0.5,0.6875 0.5,1.171875 c 0,0.5 0.4375,0.875 1.0625,0.875 1.015625,0 2.046875,-0.90625 2.328125,-2.03125 z m 0,0"
           id="id-069eab5a-5a84-45df-9536-39e888809cab" />
      </symbol>
    </g>
    <g
       id="g2785">
      <symbol
         overflow="visible"
         id="symbol2779">
        <path
           style="stroke:none;stroke-width:0"
           d=""
           id="path2777" />
      </symbol>
      <symbol
         overflow="visible"
         id="symbol2783">
        <path
           style="stroke:none;stroke-width:0"
           d="m 4.84375,-3.796875 c 0.046875,-0.140625 0.046875,-0.15625 0.046875,-0.234375 0,-0.171875 -0.140625,-0.265625 -0.296875,-0.265625 -0.09375,0 -0.25,0.0625 -0.34375,0.203125 -0.015625,0.0625 -0.109375,0.359375 -0.140625,0.546875 -0.078125,0.25 -0.140625,0.53125 -0.203125,0.796875 l -0.453125,1.796875 c -0.03125,0.140625 -0.46875,0.84375 -1.125,0.84375 -0.5,0 -0.609375,-0.4375 -0.609375,-0.8125 C 1.71875,-1.375 1.890625,-2 2.21875,-2.875 2.375,-3.28125 2.421875,-3.390625 2.421875,-3.59375 c 0,-0.4375 -0.3125,-0.8125 -0.8125,-0.8125 -0.953125,0 -1.3125,1.453125 -1.3125,1.53125 0,0.109375 0.09375,0.109375 0.109375,0.109375 0.109375,0 0.109375,-0.03125 0.15625,-0.1875 0.28125,-0.9375 0.671875,-1.234375 1.015625,-1.234375 0.078125,0 0.25,0 0.25,0.3125 0,0.25 -0.109375,0.515625 -0.171875,0.703125 -0.40625,1.0625 -0.578125,1.625 -0.578125,2.09375 0,0.890625 0.625,1.1875 1.21875,1.1875 0.390625,0 0.71875,-0.171875 1,-0.453125 -0.125,0.515625 -0.25,1.015625 -0.640625,1.546875 -0.265625,0.328125 -0.640625,0.625 -1.09375,0.625 -0.140625,0 -0.59375,-0.03125 -0.765625,-0.421875 0.15625,0 0.296875,0 0.421875,-0.125 C 1.328125,1.203125 1.421875,1.0625 1.421875,0.875 1.421875,0.5625 1.15625,0.53125 1.0625,0.53125 0.828125,0.53125 0.5,0.6875 0.5,1.171875 c 0,0.5 0.4375,0.875 1.0625,0.875 1.015625,0 2.046875,-0.90625 2.328125,-2.03125 z m 0,0"
           id="path2781" />
      </symbol>
    </g>
    <g
       id="id-afb5e2a3-ad0b-4968-b15f-b22699d70a5f">
      <symbol
         overflow="visible"
         id="id-1e419f38-603e-41f6-a453-56ef3993687b">
        <path
           style="stroke:none;stroke-width:0"
           d=""
           id="id-8822fa3c-2c59-4f19-afd1-f031d258a589" />
      </symbol>
      <symbol
         overflow="visible"
         id="id-18e11c22-7d0c-4eb0-a027-f6721a4d290d">
        <path
           style="stroke:none;stroke-width:0"
           d="m 7.578125,-6.921875 c 0,-0.03125 -0.015625,-0.109375 -0.109375,-0.109375 -0.03125,0 -0.046875,0.015625 -0.15625,0.125 L 6.625,-6.140625 C 6.53125,-6.28125 6.078125,-7.03125 4.96875,-7.03125 2.734375,-7.03125 0.5,-4.828125 0.5,-2.515625 0.5,-0.875 1.671875,0.21875 3.203125,0.21875 c 0.859375,0 1.625,-0.390625 2.15625,-0.859375 0.921875,-0.8125 1.09375,-1.71875 1.09375,-1.75 C 6.453125,-2.5 6.34375,-2.5 6.328125,-2.5 c -0.0625,0 -0.109375,0.03125 -0.125,0.109375 -0.09375,0.28125 -0.328125,1 -1.015625,1.578125 -0.6875,0.546875 -1.3125,0.71875 -1.828125,0.71875 -0.890625,0 -1.953125,-0.515625 -1.953125,-2.0625 0,-0.578125 0.203125,-2.1875 1.203125,-3.359375 0.609375,-0.703125 1.546875,-1.203125 2.4375,-1.203125 1.015625,0 1.609375,0.765625 1.609375,1.921875 0,0.40625 -0.03125,0.40625 -0.03125,0.515625 0,0.09375 0.109375,0.09375 0.140625,0.09375 0.125,0 0.125,-0.015625 0.1875,-0.203125 z m 0,0"
           id="id-5f3f2a23-2424-47c9-8d6d-71c01618a19b" />
      </symbol>
    </g>
    <defs
       id="id-492c80dd-366e-494c-b10c-dcd406c582a6">
      <g
         id="g1142">
        <symbol
           overflow="visible"
           id="symbol1136">
          <path
             style="stroke:none;stroke-width:0"
             d=""
             id="path1134" />
        </symbol>
        <symbol
           overflow="visible"
           id="symbol1140">
          <path
             style="stroke:none;stroke-width:0"
             d="m 7.578125,-6.921875 c 0,-0.03125 -0.015625,-0.109375 -0.109375,-0.109375 -0.03125,0 -0.046875,0.015625 -0.15625,0.125 L 6.625,-6.140625 C 6.53125,-6.28125 6.078125,-7.03125 4.96875,-7.03125 2.734375,-7.03125 0.5,-4.828125 0.5,-2.515625 0.5,-0.875 1.671875,0.21875 3.203125,0.21875 c 0.859375,0 1.625,-0.390625 2.15625,-0.859375 0.921875,-0.8125 1.09375,-1.71875 1.09375,-1.75 C 6.453125,-2.5 6.34375,-2.5 6.328125,-2.5 c -0.0625,0 -0.109375,0.03125 -0.125,0.109375 -0.09375,0.28125 -0.328125,1 -1.015625,1.578125 -0.6875,0.546875 -1.3125,0.71875 -1.828125,0.71875 -0.890625,0 -1.953125,-0.515625 -1.953125,-2.0625 0,-0.578125 0.203125,-2.1875 1.203125,-3.359375 0.609375,-0.703125 1.546875,-1.203125 2.4375,-1.203125 1.015625,0 1.609375,0.765625 1.609375,1.921875 0,0.40625 -0.03125,0.40625 -0.03125,0.515625 0,0.09375 0.109375,0.09375 0.140625,0.09375 0.125,0 0.125,-0.015625 0.1875,-0.203125 z m 0,0"
             id="path1138" />
        </symbol>
      </g>
    </defs>
    <defs
       id="id-51e35d73-5c97-4ae5-9324-0c797a14fa3a">
      <g
         id="g1107">
        <symbol
           overflow="visible"
           id="symbol1093">
          <path
             style="stroke:none;stroke-width:0"
             d=""
             id="path1091" />
        </symbol>
        <symbol
           overflow="visible"
           id="symbol1097">
          <path
             style="stroke:none;stroke-width:0"
             d="M 4.140625,-6.515625 3.984375,-6.65625 c 0,0 -0.375,0.46875 -0.8125,0.46875 -0.234375,0 -0.484375,-0.140625 -0.65625,-0.25 C 2.25,-6.59375 2.078125,-6.65625 1.90625,-6.65625 c -0.375,0 -0.578125,0.21875 -1.078125,0.78125 l 0.15625,0.140625 c 0,0 0.375,-0.46875 0.8125,-0.46875 0.234375,0 0.484375,0.140625 0.65625,0.234375 0.265625,0.171875 0.453125,0.234375 0.625,0.234375 0.375,0 0.5625,-0.21875 1.0625,-0.78125 z m 0,0"
             id="path1095" />
        </symbol>
        <symbol
           overflow="visible"
           id="symbol1101">
          <path
             style="stroke:none;stroke-width:0"
             d=""
             id="path1099" />
        </symbol>
        <symbol
           overflow="visible"
           id="symbol1105">
          <path
             style="stroke:none;stroke-width:0"
             d="m 4.84375,-3.796875 c 0.046875,-0.140625 0.046875,-0.15625 0.046875,-0.234375 0,-0.171875 -0.140625,-0.265625 -0.296875,-0.265625 -0.09375,0 -0.25,0.0625 -0.34375,0.203125 -0.015625,0.0625 -0.109375,0.359375 -0.140625,0.546875 -0.078125,0.25 -0.140625,0.53125 -0.203125,0.796875 l -0.453125,1.796875 c -0.03125,0.140625 -0.46875,0.84375 -1.125,0.84375 -0.5,0 -0.609375,-0.4375 -0.609375,-0.8125 C 1.71875,-1.375 1.890625,-2 2.21875,-2.875 2.375,-3.28125 2.421875,-3.390625 2.421875,-3.59375 c 0,-0.4375 -0.3125,-0.8125 -0.8125,-0.8125 -0.953125,0 -1.3125,1.453125 -1.3125,1.53125 0,0.109375 0.09375,0.109375 0.109375,0.109375 0.109375,0 0.109375,-0.03125 0.15625,-0.1875 0.28125,-0.9375 0.671875,-1.234375 1.015625,-1.234375 0.078125,0 0.25,0 0.25,0.3125 0,0.25 -0.109375,0.515625 -0.171875,0.703125 -0.40625,1.0625 -0.578125,1.625 -0.578125,2.09375 0,0.890625 0.625,1.1875 1.21875,1.1875 0.390625,0 0.71875,-0.171875 1,-0.453125 -0.125,0.515625 -0.25,1.015625 -0.640625,1.546875 -0.265625,0.328125 -0.640625,0.625 -1.09375,0.625 -0.140625,0 -0.59375,-0.03125 -0.765625,-0.421875 0.15625,0 0.296875,0 0.421875,-0.125 C 1.328125,1.203125 1.421875,1.0625 1.421875,0.875 1.421875,0.5625 1.15625,0.53125 1.0625,0.53125 0.828125,0.53125 0.5,0.6875 0.5,1.171875 c 0,0.5 0.4375,0.875 1.0625,0.875 1.015625,0 2.046875,-0.90625 2.328125,-2.03125 z m 0,0"
             id="path1103" />
        </symbol>
      </g>
    </defs>
    <defs
       id="id-66669117-aada-4b1b-92ad-d5e435e4bf83-6">
      <g
         id="g1126">
        <symbol
           overflow="visible"
           id="symbol1120">
          <path
             style="stroke:none;stroke-width:0"
             d=""
             id="path1118" />
        </symbol>
        <symbol
           overflow="visible"
           id="symbol1124">
          <path
             style="stroke:none;stroke-width:0"
             d="m 4.84375,-3.796875 c 0.046875,-0.140625 0.046875,-0.15625 0.046875,-0.234375 0,-0.171875 -0.140625,-0.265625 -0.296875,-0.265625 -0.09375,0 -0.25,0.0625 -0.34375,0.203125 -0.015625,0.0625 -0.109375,0.359375 -0.140625,0.546875 -0.078125,0.25 -0.140625,0.53125 -0.203125,0.796875 l -0.453125,1.796875 c -0.03125,0.140625 -0.46875,0.84375 -1.125,0.84375 -0.5,0 -0.609375,-0.4375 -0.609375,-0.8125 C 1.71875,-1.375 1.890625,-2 2.21875,-2.875 2.375,-3.28125 2.421875,-3.390625 2.421875,-3.59375 c 0,-0.4375 -0.3125,-0.8125 -0.8125,-0.8125 -0.953125,0 -1.3125,1.453125 -1.3125,1.53125 0,0.109375 0.09375,0.109375 0.109375,0.109375 0.109375,0 0.109375,-0.03125 0.15625,-0.1875 0.28125,-0.9375 0.671875,-1.234375 1.015625,-1.234375 0.078125,0 0.25,0 0.25,0.3125 0,0.25 -0.109375,0.515625 -0.171875,0.703125 -0.40625,1.0625 -0.578125,1.625 -0.578125,2.09375 0,0.890625 0.625,1.1875 1.21875,1.1875 0.390625,0 0.71875,-0.171875 1,-0.453125 -0.125,0.515625 -0.25,1.015625 -0.640625,1.546875 -0.265625,0.328125 -0.640625,0.625 -1.09375,0.625 -0.140625,0 -0.59375,-0.03125 -0.765625,-0.421875 0.15625,0 0.296875,0 0.421875,-0.125 C 1.328125,1.203125 1.421875,1.0625 1.421875,0.875 1.421875,0.5625 1.15625,0.53125 1.0625,0.53125 0.828125,0.53125 0.5,0.6875 0.5,1.171875 c 0,0.5 0.4375,0.875 1.0625,0.875 1.015625,0 2.046875,-0.90625 2.328125,-2.03125 z m 0,0"
             id="path1122" />
        </symbol>
      </g>
    </defs>
  </defs>
  <rect
     style="fill:#ffffff;stroke-width:0.358245;stroke-opacity:0.729167"
     id="rect1"
     width="100"
     height="80"
     x="0"
     y="0" />
  <g
     id="g2595"
     transform="translate(0.2)">
    <g
       id="g2580">
      <g
         id="g2566">
        <path
           d="m 75.605017,57.317467 v 0 c 0.10046,-9.4287 -11.28197,-17.18634 -25.42307,-17.32707 -14.141104,-0.14073 -25.687211,7.38849 -25.786965,16.81651 -0.100455,9.42869 11.281972,17.18566 25.423075,17.32638 14.1411,0.14073 25.68721,-7.38781 25.78696,-16.81582 z"
           style="fill:#d75f7e;fill-opacity:0.21;stroke:#f50072;stroke-width:0.2;stroke-linecap:butt;stroke-linejoin:miter;stroke-miterlimit:10;stroke-dasharray:none;stroke-opacity:0.996078"
           id="path81598-3" />
        <path
           d="m 39.02969,12.936609 4.986627,27.546838"
           style="fill:none;stroke:#000000;stroke-width:0.215078;stroke-linecap:butt;stroke-linejoin:miter;stroke-miterlimit:10;stroke-dasharray:1.72062, 0.860309;stroke-dashoffset:0;stroke-opacity:1"
           id="path81594-6" />
        <path
           d="m 60.970317,12.936609 -4.98663,27.546838"
           style="fill:none;stroke:#000000;stroke-width:0.215078;stroke-linecap:butt;stroke-linejoin:miter;stroke-miterlimit:10;stroke-dasharray:1.72062, 0.860309;stroke-dashoffset:0;stroke-opacity:1"
           id="path81596-7" />
        <path
           style="color:#000000;fill:#000000;stroke-width:0.599723;-inkscape-stroke:none"
           d="m 62.905157,5.8876069 -0.09371,-0.084336 c 0,0 -0.224896,0.2811201 -0.487275,0.2811201 -0.14056,0 -0.29049,-0.084336 -0.393568,-0.1499307 -0.159301,-0.093707 -0.262379,-0.1311894 -0.365456,-0.1311894 -0.224896,0 -0.346715,0.1311894 -0.646576,0.4685336 l 0.09371,0.084336 c 0,0 0.224896,-0.2811201 0.487275,-0.2811201 0.14056,0 0.290491,0.084336 0.393568,0.14056 0.159302,0.1030774 0.27175,0.1405601 0.374827,0.1405601 0.224896,0 0.337345,-0.1311894 0.637205,-0.4685336 z m 0,0"
           id="id-0bc2ceb4-bdf5-4717-9f73-6c0307a72fba" />
        <path
           style="color:#000000;fill:#000000;stroke-width:0.599723;-inkscape-stroke:none"
           d="m 62.916627,7.5181038 c 0.02811,-0.084336 0.02811,-0.093707 0.02811,-0.14056 0,-0.1030774 -0.08434,-0.1593015 -0.178042,-0.1593015 -0.05622,0 -0.149931,0.037483 -0.206155,0.1218188 -0.0094,0.037483 -0.06559,0.2155254 -0.08434,0.3279735 -0.04685,0.1499307 -0.08434,0.3186028 -0.121819,0.4779043 l -0.27175,1.0776272 c -0.01874,0.084336 -0.28112,0.5060163 -0.674688,0.5060163 -0.299861,0 -0.365456,-0.2623788 -0.365456,-0.4872749 0,-0.2717495 0.103077,-0.6465764 0.299861,-1.171334 0.09371,-0.2436375 0.121819,-0.3092322 0.121819,-0.4310509 0,-0.2623788 -0.187413,-0.487275 -0.487275,-0.487275 -0.571611,0 -0.787136,0.8714725 -0.787136,0.9183259 0,0.065595 0.05622,0.065595 0.06559,0.065595 0.0656,0 0.0656,-0.018741 0.09371,-0.1124481 0.168672,-0.5622403 0.402939,-0.7402831 0.609094,-0.7402831 0.04685,0 0.149931,0 0.149931,0.1874135 0,0.1499307 -0.0656,0.3092321 -0.103078,0.4216802 -0.243637,0.6372057 -0.346715,0.9745499 -0.346715,1.25567 0,0.5341283 0.374827,0.7121711 0.730913,0.7121711 0.234267,0 0.431051,-0.1030774 0.599723,-0.2717495 -0.07497,0.3092322 -0.149931,0.6090934 -0.384198,0.9276964 -0.159301,0.196784 -0.384197,0.374827 -0.655947,0.374827 -0.08434,0 -0.356085,-0.01874 -0.459163,-0.253008 0.09371,0 0.178043,0 0.253008,-0.07497 0.06559,-0.04685 0.121819,-0.131189 0.121819,-0.243637 0,-0.187414 -0.159301,-0.206155 -0.215525,-0.206155 -0.14056,0 -0.337345,0.09371 -0.337345,0.384197 0,0.299862 0.262379,0.524758 0.637206,0.524758 0.609094,0 1.227558,-0.543499 1.39623,-1.2181869 z m 0,0"
           id="id-973737b3-1f48-49cf-91e0-fd5c99c32115" />
        <path
           style="color:#000000;fill:#000000;stroke-width:0.599723;-inkscape-stroke:none"
           d="m 40.25211,7.5181038 c 0.02811,-0.084336 0.02811,-0.093707 0.02811,-0.14056 0,-0.1030774 -0.08434,-0.1593015 -0.178042,-0.1593015 -0.05622,0 -0.149931,0.037483 -0.206155,0.1218188 -0.0094,0.037483 -0.0656,0.2155254 -0.08434,0.3279735 -0.04685,0.1499307 -0.08434,0.3186028 -0.121819,0.4779043 l -0.27175,1.0776272 c -0.01874,0.084336 -0.28112,0.5060163 -0.674688,0.5060163 -0.299861,0 -0.365456,-0.2623788 -0.365456,-0.4872749 0,-0.2717495 0.103077,-0.6465764 0.299861,-1.171334 0.09371,-0.2436375 0.121819,-0.3092322 0.121819,-0.4310509 0,-0.2623788 -0.187413,-0.487275 -0.487275,-0.487275 -0.571611,0 -0.787136,0.8714725 -0.787136,0.9183259 0,0.065595 0.05622,0.065595 0.06559,0.065595 0.06559,0 0.06559,-0.018741 0.09371,-0.1124481 0.168672,-0.5622403 0.402939,-0.7402831 0.609094,-0.7402831 0.04685,0 0.149931,0 0.149931,0.1874135 0,0.1499307 -0.0656,0.3092321 -0.103078,0.4216802 -0.243637,0.6372057 -0.346715,0.9745499 -0.346715,1.25567 0,0.5341283 0.374827,0.7121711 0.730913,0.7121711 0.234267,0 0.431051,-0.1030774 0.599723,-0.2717495 -0.07497,0.3092322 -0.149931,0.6090934 -0.384198,0.9276964 -0.159301,0.196784 -0.384197,0.374827 -0.655947,0.374827 -0.08434,0 -0.356085,-0.01874 -0.459163,-0.253008 0.09371,0 0.178043,0 0.253008,-0.07497 0.0656,-0.04685 0.121819,-0.131189 0.121819,-0.243637 0,-0.187414 -0.159301,-0.206155 -0.215525,-0.206155 -0.14056,0 -0.337344,0.09371 -0.337344,0.384197 0,0.299862 0.262378,0.524758 0.637205,0.524758 0.609094,0 1.227558,-0.543499 1.39623,-1.2181869 z m 0,0"
           id="id-9117bf6c-ea02-456a-ae7b-e0929144e946-2" />
        <path
           style="color:#000000;fill:#000000;stroke-width:0.599723;-inkscape-stroke:none"
           d="m 65.763952,60.202131 c 0,-0.01874 -0.0094,-0.06559 -0.0656,-0.06559 -0.01874,0 -0.02811,0.0094 -0.09371,0.07497 l -0.412309,0.459163 c -0.05622,-0.08434 -0.327974,-0.534128 -0.993291,-0.534128 -1.340006,0 -2.680013,1.321264 -2.680013,2.708124 0,0.98392 0.702801,1.639867 1.621127,1.639867 0.515387,0 0.97455,-0.234266 1.293152,-0.515387 0.55287,-0.487274 0.655947,-1.030773 0.655947,-1.049515 0,-0.06559 -0.06559,-0.06559 -0.07497,-0.06559 -0.03748,0 -0.0656,0.01874 -0.07496,0.06559 -0.05622,0.168672 -0.196784,0.599723 -0.609094,0.946438 -0.41231,0.327974 -0.787136,0.431051 -1.096369,0.431051 -0.534128,0 -1.171334,-0.309232 -1.171334,-1.236929 0,-0.346715 0.121819,-1.311894 0.721542,-2.014694 0.365456,-0.42168 0.927697,-0.721542 1.461825,-0.721542 0.609094,0 0.965179,0.459163 0.965179,1.152593 0,0.243637 -0.01874,0.243637 -0.01874,0.309232 0,0.05622 0.0656,0.05622 0.08434,0.05622 0.07496,0 0.07496,-0.0094 0.112448,-0.121819 z m 0,0"
           id="id-7ae0a1e8-1a76-484b-9bab-9f01a80a821a" />
        <circle
           id="path80904-3"
           style="fill:#000000;stroke:none;stroke-width:0.397999"
           cx="38.953979"
           cy="12.514956"
           r="0.597" />
        <circle
           id="path80904-6"
           style="fill:#000000;stroke:none;stroke-width:0.397999"
           cx="61.062599"
           cy="12.514948"
           r="0.597" />
        <circle
           id="path80904-06"
           style="fill:#000000;stroke:none;stroke-width:0.397999"
           cx="55.960419"
           cy="40.440098"
           r="0.597" />
        <circle
           id="path80904-2"
           style="fill:#000000;stroke:none;stroke-width:0.397999"
           cx="44.003464"
           cy="40.440098"
           r="0.597" />
      </g>
    </g>
  </g>
  <g
     transform="matrix(0.881943 0 0 0.881943 5.60187 5.63)"
     ns1:version="1.10.2"
     ns1:texconverter="pdflatex"
     ns1:pdfconverter="inkscape"
     ns1:text="A"
     ns1:preamble="/Users/markolalovic/Library/Application Support/org.inkscape.Inkscape/config/inkscape/extensions/textext/default_packages.tex"
     ns1:scale="2.5"
     ns1:alignment="middle center"
     ns1:stroke-to-path="0"
     ns1:inkscapeversion="1.3.2"
     id="g1153"
     ns1:jacobian_sqrt="0.881943">
    <defs
       id="id-58b3610e-9580-4a6f-ba03-88a2dee5d96a">
      <g
         id="id-84e5906c-813b-4190-9b59-55ec884f0e7d">
        <g
           id="id-26220317-8a3f-4e4a-aa4a-2adf27a0c056">
          <path
             d="m 3.96875,-6.9375 c -0.046875,-0.125 -0.078125,-0.203125 -0.234375,-0.203125 -0.15625,0 -0.1875,0.0625 -0.234375,0.203125 L 1.4375,-0.984375 C 1.25,-0.46875 0.859375,-0.3125 0.3125,-0.3125 V 0 c 0.234375,-0.015625 0.671875,-0.03125 1.015625,-0.03125 0.3125,0 0.828125,0.015625 1.15625,0.03125 v -0.3125 c -0.5,0 -0.75,-0.25 -0.75,-0.5 0,-0.03125 0.015625,-0.140625 0.015625,-0.15625 L 2.21875,-2.265625 H 4.671875 L 5.203125,-0.75 c 0.015625,0.046875 0.03125,0.109375 0.03125,0.140625 0,0.296875 -0.5625,0.296875 -0.828125,0.296875 V 0 c 0.359375,-0.03125 1.0625,-0.03125 1.4375,-0.03125 0.421875,0 0.890625,0.015625 1.296875,0.03125 V -0.3125 H 6.96875 C 6.375,-0.3125 6.234375,-0.375 6.125,-0.703125 Z m -0.53125,1.109375 1.125,3.25 H 2.328125 Z m 0,0"
             id="id-ace5cc20-9fc0-41a3-b4bc-71c42c9dc3cb" />
        </g>
      </g>
    </defs>
    <g
       fill="#000000"
       fill-opacity="1"
       id="id-9346714e-ad47-42d6-826e-e80d15fcfd1b"
       transform="translate(-149.025, -127.624)">
      <g
         transform="translate(148.712, 134.765)"
         id="g4810">
        <path
           d="m 3.96875,-6.9375 c -0.046875,-0.125 -0.078125,-0.203125 -0.234375,-0.203125 -0.15625,0 -0.1875,0.0625 -0.234375,0.203125 L 1.4375,-0.984375 C 1.25,-0.46875 0.859375,-0.3125 0.3125,-0.3125 V 0 c 0.234375,-0.015625 0.671875,-0.03125 1.015625,-0.03125 0.3125,0 0.828125,0.015625 1.15625,0.03125 v -0.3125 c -0.5,0 -0.75,-0.25 -0.75,-0.5 0,-0.03125 0.015625,-0.140625 0.015625,-0.15625 L 2.21875,-2.265625 H 4.671875 L 5.203125,-0.75 c 0.015625,0.046875 0.03125,0.109375 0.03125,0.140625 0,0.296875 -0.5625,0.296875 -0.828125,0.296875 V 0 c 0.359375,-0.03125 1.0625,-0.03125 1.4375,-0.03125 0.421875,0 0.890625,0.015625 1.296875,0.03125 V -0.3125 H 6.96875 C 6.375,-0.3125 6.234375,-0.375 6.125,-0.703125 Z m -0.53125,1.109375 1.125,3.25 H 2.328125 Z m 0,0"
           id="id-91837247-30b0-4984-808b-66664f23b213" />
      </g>
    </g>
  </g>
</svg>
