<svg xmlns="http://www.w3.org/2000/svg" xmlns:xlink="http://www.w3.org/1999/xlink" width="780.752" height="443.771" viewBox="0 0 206.574 117.414" xmlns:v="https://vecta.io/nano"><style><![CDATA[.B{stroke-miterlimit:10}.C{stroke:#000}.D{fill:none}.E{font-size:4.981px}.F{writing-mode:lr-tb}.G{fill:#000}.H{fill:#b3e6fa}.I{stroke-width:.3}.J{font-family:CMR5}.K{fill:#d9d9d9}.L{stroke-width:.291}.M{stroke-linecap:square}.N{stroke-width:.411}.O{font-family:CMMI5}]]></style><g transform="translate(-1.073 -3.412)"><g class="B C L"><path d="M19.365 99.976h62.114V37.863H19.365z" class="H"/><path d="M13.153 37.863l37.268-24.845L87.69 37.863zm14.493 62.113l-8.282 20.704h4.141l9.938-16.564H46.28l2.07 16.564h4.141l2.07-16.564h12.837l9.938 16.564h4.141l-8.282-20.704z" class="K"/></g><use xlink:href="#B" class="K"/><use xlink:href="#B" y="-10.352" class="K"/><use xlink:href="#B" y="-20.704" class="K"/><use xlink:href="#B" y="-31.056" class="K"/><use xlink:href="#B" y="-41.409" class="K"/><use xlink:href="#B" class="B C D I"/><g transform="matrix(.7304 0 0 -.7304 19.364756 99.976466)"><path d="M38.127 10.292h8.787v7.195h-8.787z" class="H"/></g><use xlink:href="#B" y="-10.352" class="B C D I"/><g transform="matrix(.7304 0 0 -.7304 19.364756 99.976466)"><path d="M38.127 24.466h8.787v7.195h-8.787z" class="H"/></g><use xlink:href="#B" y="-20.704" class="B C D I"/><g transform="matrix(.7304 0 0 -.7304 19.364756 99.976466)"><path d="M38.127 38.639h8.787v7.195h-8.787z" class="H"/></g><use xlink:href="#B" y="-31.056" class="B C D I"/><g transform="matrix(.7304 0 0 -.7304 19.364756 99.976466)"><path d="M38.127 52.813h8.787v7.195h-8.787z" class="H"/></g><use xlink:href="#B" y="-41.466" class="B C D I"/><g transform="matrix(.7304 0 0 -.7304 19.364756 99.976466)"><path d="M38.127 66.986h8.787v7.195h-8.787z" class="H"/></g><g class="B C D"><path d="M11.084 99.758v-61.47" class="I"/><g class="M N"><path d="M.1-2.59V2.59" transform="matrix(0 .7304 .7304 0 11.083126 99.758181)"/><path d="M.1-2.59V2.59" transform="matrix(0 -.7304 -.7304 0 11.083126 38.288185)"/></g></g><g transform="matrix(.7304 0 0 -.7304 19.364756 99.976466)"><path d="M-19.473 38.656h16.269v7.444h-16.269z" fill="#fff"/></g><g class="B C L"><path d="M134.774 99.976h62.114V37.863h-62.113z" class="H"/><path d="M128.562 37.863l37.268-24.845 37.268 24.845zm14.493 62.113l-8.282 20.705h4.141l9.938-16.564h12.837l2.07 16.564h4.141l2.07-16.564h12.837l9.938 16.564h4.141l-8.282-20.705z" class="K"/></g><path d="M134.774 38.07h62.114zm0 27.571h62.114zm0 11.506h62.114zm0 8.829h62.114zm0 7.443h62.114zm0 6.351h62.114z" stroke="red" stroke-dasharray="2.98883, 2.98883" class="D B L"/><g class="K"><use xlink:href="#B" x="115.409" y="-33.334"/><use xlink:href="#B" x="115.409" y="-17.806"/><use xlink:href="#B" x="115.409" y="-7.868"/><use xlink:href="#B" x="115.409" y="0.207"/><use xlink:href="#B" x="115.409" y="7.04"/></g><use xlink:href="#B" x="115.409" y="-33.334" class="B C D I"/><g transform="matrix(.7304 0 0 -.7304 134.77358 99.976466)"><path d="M36.432 55.931h12.177v7.195H36.432z" class="H"/></g><use xlink:href="#B" x="115.409" y="-17.806" class="B C D I"/><g transform="matrix(.7304 0 0 -.7304 134.77358 99.976466)"><path d="M36.432 34.671h12.177v7.195H36.432z" class="H"/></g><use xlink:href="#B" x="115.409" y="-7.868" class="B C D I"/><g transform="matrix(.7304 0 0 -.7304 134.77358 99.976466)"><path d="M36.432 21.064h12.177v7.195H36.432z" class="H"/></g><use xlink:href="#B" x="115.409" y="0.207" class="B C D I"/><g transform="matrix(.7304 0 0 -.7304 134.77358 99.976466)"><path d="M36.432 10.009h12.177v7.195H36.432z" class="H"/></g><use xlink:href="#B" x="115.409" y="7.04" class="B C D I"/><g transform="matrix(.7304 0 0 -.7304 134.77358 99.976466)"><path d="M36.432.655h12.177V7.85H36.432z" class="H"/></g><g class="B C D"><path d="M126.437 99.758v-61.47" class="I"/><g class="M N"><path d="M.1-2.59V2.59" transform="matrix(0 .7304 .7304 0 126.43688 99.758181)"/><path d="M.1-2.59V2.59" transform="matrix(0 -.7304 -.7304 0 126.43688 38.288185)"/></g></g><g transform="matrix(.7304 0 0 -.7304 134.77358 99.976466)"><path d="M-19.473 38.656h16.269v7.444h-16.269z" fill="#fff"/></g><g transform="matrix(.494098 0 0 .494098 5.494074 66.530806)"><use xlink:href="#C"/><use xlink:href="#D"/><use xlink:href="#E"/></g><g transform="matrix(.494098 0 0 .494098 120.84647 66.530806)"><use xlink:href="#C"/><use xlink:href="#D"/><use xlink:href="#E"/></g><g transform="matrix(.494098 0 0 .494098 161.73205 54.649208)"><use xlink:href="#F"/><use xlink:href="#G"/><use xlink:href="#H"/><use xlink:href="#H" x="4.981"/></g><g transform="matrix(.494098 0 0 .494098 161.73224 70.123543)"><use xlink:href="#I"/><use xlink:href="#G" x="-0.391"/><path d="M9.749 3.125c.813-.266 1.391-.953 1.391-1.75C11.139.563 10.264 0 9.311 0c-1 0-1.766.594-1.766 1.359a.48.48 0 0 0 .516.516c.297 0 .5-.219.5-.516 0-.484-.469-.484-.609-.484.297-.5.953-.625 1.313-.625.422 0 .969.219.969 1.109 0 .125-.031.703-.281 1.141a.93.93 0 0 1-.891.516 3.29 3.29 0 0 1-.391.031c-.078.016-.141.031-.141.125 0 .109.063.109.234.109h.438c.813 0 1.188.672 1.188 1.656 0 1.359-.687 1.641-1.125 1.641s-1.187-.172-1.531-.75c.344.047.656-.172.656-.547 0-.359-.266-.562-.547-.562a.53.53 0 0 0-.562.578c0 .906.922 1.563 2.016 1.563 1.219 0 2.125-.906 2.125-1.922 0-.812-.641-1.594-1.672-1.812zm3.402.25v-.25C13.151.61 14.386.25 14.901.25c.234 0 .656.063.875.406-.156 0-.547 0-.547.438 0 .313.234.469.453.469.156 0 .469-.094.469-.484C16.151.485 15.714 0 14.886 0c-1.281 0-2.625 1.281-2.625 3.484 0 2.672 1.156 3.375 2.078 3.375 1.109 0 2.063-.937 2.063-2.25 0-1.266-.891-2.219-2-2.219-.672 0-1.047.5-1.25.984zm1.188 3.203c-.625 0-.922-.594-.984-.75-.187-.469-.187-1.266-.187-1.437 0-.781.328-1.781 1.219-1.781.172 0 .625 0 .938.625.172.359.172.875.172 1.359s0 .984-.172 1.344c-.297.594-.75.641-.984.641zm0 0"/></g><g transform="matrix(.494098 0 0 .494098 161.60871 80.061621)"><use xlink:href="#J"/><use xlink:href="#G" x="0.109"/><path d="M8.983 2.078c-.453-.297-.5-.625-.5-.797C8.483.672 9.139.25 9.842.25c.719 0 1.359.516 1.359 1.234 0 .578-.391 1.047-.984 1.391zm1.453.953c.719-.375 1.203-.891 1.203-1.547C11.639.563 10.764 0 9.858 0c-1 0-1.812.734-1.812 1.672a1.58 1.58 0 0 0 .438 1.094c.109.109.484.359.734.531-.578.297-1.437.844-1.437 1.844 0 1.047 1.016 1.719 2.063 1.719 1.125 0 2.078-.828 2.078-1.891 0-.359-.109-.812-.5-1.234-.187-.203-.344-.297-.984-.703zm-1 .422l1.234.781c.281.188.75.484.75 1.094 0 .734-.75 1.25-1.562 1.25-.859 0-1.578-.609-1.578-1.437 0-.578.313-1.219 1.156-1.687zm4.528-1.375c-.453-.297-.5-.625-.5-.797 0-.609.656-1.031 1.359-1.031.719 0 1.359.516 1.359 1.234 0 .578-.391 1.047-.984 1.391zm1.453.953c.719-.375 1.203-.891 1.203-1.547C16.62.563 15.745 0 14.839 0c-1 0-1.812.734-1.812 1.672a1.58 1.58 0 0 0 .438 1.094c.109.109.484.359.734.531-.578.297-1.437.844-1.437 1.844 0 1.047 1.016 1.719 2.063 1.719 1.125 0 2.078-.828 2.078-1.891 0-.359-.109-.812-.5-1.234-.187-.203-.344-.297-.984-.703zm-1 .422l1.234.781c.281.188.75.484.75 1.094 0 .734-.75 1.25-1.562 1.25-.859 0-1.578-.609-1.578-1.437 0-.578.313-1.219 1.156-1.687zm0 0"/></g><g transform="matrix(.494098 0 0 .494098 161.60871 88.109532)"><path d="M4.187 3.563c0-.797-.047-1.594-.391-2.328C3.343.266 2.515.109 2.109.109 1.5.109.781.375.359 1.297.046 1.984 0 2.766 0 3.563c0 .75.031 1.641.453 2.406a1.83 1.83 0 0 0 1.641 1c.531 0 1.297-.203 1.734-1.156.313-.687.359-1.469.359-2.25zM2.093 6.75c-.391 0-.984-.25-1.156-1.203C.828 4.953.828 4.031.828 3.438l.078-1.828C1.093.422 1.843.328 2.093.328c.328 0 .984.188 1.172 1.172.109.563.109 1.313.109 1.938 0 .75 0 1.422-.109 2.063-.156.953-.719 1.25-1.172 1.25zm0 0"/><use xlink:href="#G" x="0.109" y="0.109"/><path d="M10.296 5.109v.859c0 .359-.031.469-.766.469h-.203v.313c.406-.031.922-.031 1.344-.031l1.359.031v-.312h-.219c-.734 0-.75-.109-.75-.469V5.11h.984v-.312h-.984V.266c0-.203 0-.266-.172-.266-.078 0-.109 0-.187.125L7.639 4.797v.313zm.047-.312H7.921l2.422-3.719zm5.652-1.219v.328c0 2.328-1.031 2.781-1.609 2.781-.172 0-.719-.016-.984-.359.438 0 .516-.281.516-.453 0-.312-.234-.453-.453-.453a.43.43 0 0 0-.453.469c0 .672.531 1.078 1.375 1.078 1.297 0 2.516-1.359 2.516-3.5C16.903.782 15.747.11 14.856.11a1.93 1.93 0 0 0-1.453.625c-.422.453-.641.875-.641 1.625 0 1.234.875 2.219 1.984 2.219.609 0 1.016-.422 1.25-1zm-1.234.766c-.156 0-.625 0-.922-.625-.187-.375-.187-.859-.187-1.359 0-.531 0-1 .219-1.375.266-.5.641-.625.984-.625.469 0 .797.344.969.781.109.328.156.953.156 1.406 0 .828-.344 1.797-1.219 1.797zm0 0"/></g><g transform="matrix(.494098 0 0 .494098 161.60871 94.968894)"><use xlink:href="#J"/><use xlink:href="#G" x="0.109"/><use xlink:href="#H" x="0.109"/><path d="M13.651 3.375v-.25C13.651.61 14.886.25 15.401.25c.234 0 .656.063.875.406-.156 0-.547 0-.547.438 0 .313.234.469.453.469.156 0 .469-.094.469-.484C16.652.485 16.214 0 15.386 0c-1.281 0-2.625 1.281-2.625 3.484 0 2.672 1.156 3.375 2.078 3.375 1.109 0 2.063-.937 2.063-2.25 0-1.266-.891-2.219-2-2.219-.672 0-1.047.5-1.25.984zm1.188 3.203c-.625 0-.922-.594-.984-.75-.187-.469-.187-1.266-.187-1.437 0-.781.328-1.781 1.219-1.781.172 0 .625 0 .938.625.172.359.172.875.172 1.359s0 .984-.172 1.344c-.297.594-.75.641-.984.641zm0 0"/></g><path d="M4.313.25C4.203 0 4.094 0 3.922 0c-.281 0-.328.078-.391.25l-2.469 6c-.062.156-.094.234-.844.234H0v.469l1.172-.031 1.313.031v-.469c-.016 0-.891 0-.891-.125a.41.41 0 0 1 .047-.125l.5-1.203h2.672l.594 1.453h-.953v.469c.391-.031 1.328-.031 1.766-.031l1.625.031v-.469h-.969zm-.844 1.547L4.61 4.562H2.328zm0 0" transform="matrix(.890741 0 0 .890741 13.230567 18.75486)"/><path d="M2.375 3.11V.469h1.813c1.016 0 1.188.797 1.188 1.25 0 .766-.469 1.391-1.437 1.391zm2.703.172c1.078-.203 1.719-.797 1.719-1.562C6.797.797 5.922 0 4.328 0H0v.469h1.078v5.906H0v.469h4.625c1.656 0 2.484-.875 2.484-1.859 0-.953-.844-1.625-2.031-1.703zm-.859 3.094H2.375V3.469h1.938c.203 0 .672 0 1.016.422.328.422.328.984.328 1.094s0 1.391-1.437 1.391zm0 0" transform="matrix(.890741 0 0 .890741 129.14842 18.803239)"/><path d="M1.123 3.462h206.474v117.314H1.123z" stroke="#999" stroke-width=".1" class="D"/><g transform="matrix(.494098 0 0 .494098 47.483217 46.462663)"><use xlink:href="#F"/><use xlink:href="#G"/><path d="M11.718 4.641c0-1.187-.812-2.187-1.891-2.187-.469 0-.906.156-1.266.516V1.016c.203.063.531.125.844.125 1.234 0 1.938-.906 1.938-1.031 0-.062-.031-.109-.109-.109 0 0-.031 0-.078.031a3.22 3.22 0 0 1-1.359.297c-.391 0-.859-.078-1.328-.281C8.39.016 8.374.016 8.358.016c-.109 0-.109.078-.109.234v2.953c0 .172 0 .25.141.25.078 0 .094-.016.141-.078.109-.156.469-.703 1.281-.703.516 0 .766.453.844.641.156.375.188.75.188 1.25 0 .359 0 .953-.25 1.375-.234.391-.609.641-1.062.641-.719 0-1.297-.531-1.469-1.109.031 0 .063.016.172.016a.48.48 0 0 0 .5-.484c0-.25-.172-.5-.5-.5-.141 0-.484.078-.484.531 0 .859.688 1.828 1.797 1.828 1.156 0 2.172-.953 2.172-2.219zm0 0"/></g><g transform="matrix(.494098 0 0 .494098 47.456191 56.872682)"><use xlink:href="#F"/><use xlink:href="#G"/><path d="M11.827 3.453c0-.797-.047-1.594-.391-2.328C10.983.157 10.155 0 9.749 0c-.609 0-1.328.266-1.75 1.188-.312.688-.359 1.469-.359 2.266 0 .75.031 1.641.453 2.406a1.83 1.83 0 0 0 1.641 1c.531 0 1.297-.203 1.734-1.156.313-.687.359-1.469.359-2.25zM9.733 6.641c-.391 0-.984-.25-1.156-1.203-.109-.594-.109-1.516-.109-2.109L8.546 1.5C8.733.313 9.483.219 9.733.219c.328 0 .984.188 1.172 1.172.109.563.109 1.313.109 1.938 0 .75 0 1.422-.109 2.063-.156.953-.719 1.25-1.172 1.25zm0 0"/></g><g transform="matrix(.494098 0 0 .494098 47.579903 67.224938)"><use xlink:href="#I"/><use xlink:href="#G" x="-0.391"/><use xlink:href="#K"/></g><g transform="matrix(.494098 0 0 .494098 47.552883 77.577188)"><use xlink:href="#I"/><use xlink:href="#G" x="-0.391"/><path d="M11.436 3.453c0-.797-.047-1.594-.391-2.328C10.592.157 9.764 0 9.358 0c-.609 0-1.328.266-1.75 1.188-.312.688-.359 1.469-.359 2.266 0 .75.031 1.641.453 2.406a1.83 1.83 0 0 0 1.641 1c.531 0 1.297-.203 1.734-1.156.313-.687.359-1.469.359-2.25zM9.342 6.641c-.391 0-.984-.25-1.156-1.203-.109-.594-.109-1.516-.109-2.109L8.155 1.5C8.342.313 9.092.219 9.342.219c.328 0 .984.188 1.172 1.172.109.563.109 1.313.109 1.938 0 .75 0 1.422-.109 2.063-.156.953-.719 1.25-1.172 1.25zm0 0"/></g><g transform="matrix(.494098 0 0 .494098 47.456382 87.884294)"><use xlink:href="#J"/><use xlink:href="#G" x="0.109"/><use xlink:href="#K" x="0.5"/></g></g><defs ><path id="B" d="M19.158 89.417v.414h62.527v-.414z"/><path id="C" d="M4.735.109S4.735 0 4.61 0c-.156 0-1.094.094-1.266.109-.078.016-.141.063-.141.188s.094.125.234.125c.484 0 .5.063.5.172l-.031.203-.594 2.359c-.187-.375-.469-.641-.922-.641C1.235 2.516 0 3.984 0 5.438c0 .938.547 1.594 1.313 1.594.203 0 .703-.047 1.297-.75a.91.91 0 0 0 .906.75c.359 0 .578-.234.75-.547a6.49 6.49 0 0 0 .297-.984c0-.109-.094-.109-.125-.109-.094 0-.109.047-.141.188-.172.641-.344 1.234-.75 1.234-.281 0-.297-.266-.297-.453 0-.25.016-.312.047-.484zM2.672 5.734c-.062.188-.062.203-.203.375-.437.547-.844.703-1.125.703-.5 0-.641-.547-.641-.937 0-.5.313-1.719.547-2.187.313-.578.75-.953 1.156-.953.641 0 .781.813.781.875a.56.56 0 0 1-.031.172zm0 0"/><path id="D" d="M14.391 3.656c.156 0 .344 0 .344-.187 0-.203-.187-.203-.328-.203H8.438c-.141 0-.328 0-.328.203 0 .188.188.188.328.188zm.016 1.938c.141 0 .328 0 .328-.203 0-.187-.187-.187-.344-.187H8.438c-.141 0-.328 0-.328.188 0 .203.188.203.328.203zm0 0"/><path id="E" d="M20.957 3.406c.813-.266 1.391-.953 1.391-1.75 0-.812-.875-1.375-1.828-1.375-1 0-1.766.594-1.766 1.359a.48.48 0 0 0 .516.516c.297 0 .5-.219.5-.516 0-.484-.469-.484-.609-.484.297-.5.953-.625 1.313-.625.422 0 .969.219.969 1.109 0 .125-.031.703-.281 1.141a.93.93 0 0 1-.891.516 3.29 3.29 0 0 1-.391.031c-.078.016-.141.031-.141.125 0 .109.063.109.234.109h.438c.813 0 1.188.672 1.188 1.656 0 1.359-.687 1.641-1.125 1.641s-1.187-.172-1.531-.75c.344.047.656-.172.656-.547 0-.359-.266-.562-.547-.562a.53.53 0 0 0-.562.578c0 .906.922 1.563 2.016 1.563 1.219 0 2.125-.906 2.125-1.922 0-.812-.641-1.594-1.672-1.812zm0 0"/><path id="F" d="M.766 5.875l1.063-1.031c1.547-1.375 2.141-1.906 2.141-2.906C3.969.797 3.078 0 1.859 0 .734 0 0 .922 0 1.813c0 .547.5.547.531.547.172 0 .516-.109.516-.531a.51.51 0 0 0-.531-.516c-.078 0-.094 0-.125.016C.609.672 1.156.313 1.734.313c.906 0 1.328.813 1.328 1.625 0 .797-.484 1.578-1.047 2.203L.109 6.266C0 6.375 0 6.407 0 6.641h3.703l.266-1.734h-.234c-.062.297-.125.734-.234.891-.062.078-.719.078-.937.078zm0 0"/><path id="G" d="M6.387 6.11c0-.281-.234-.531-.516-.531-.297 0-.531.25-.531.531 0 .297.234.531.531.531.281 0 .516-.234.516-.531zm0 0"/><path id="H" d="M10.187.266c0-.25 0-.266-.234-.266-.625.641-1.5.641-1.812.641v.313c.203 0 .781 0 1.297-.266V5.86c0 .359-.031.469-.922.469h-.312v.313c.344-.031 1.203-.031 1.609-.031l1.609.031v-.312h-.312c-.906 0-.922-.109-.922-.469zm0 0"/><path id="I" d="M2.046.266c0-.25 0-.266-.234-.266C1.187.641.312.641 0 .641v.313c.203 0 .781 0 1.297-.266V5.86c0 .359-.031.469-.922.469H.062v.313c.344-.031 1.203-.031 1.609-.031l1.609.031v-.312h-.312c-.906 0-.922-.109-.922-.469zm0 0"/><path id="J" d="M4.187 3.453c0-.797-.047-1.594-.391-2.328C3.343.157 2.515 0 2.109 0 1.5 0 .781.266.359 1.188.046 1.875 0 2.657 0 3.453c0 .75.031 1.641.453 2.406a1.83 1.83 0 0 0 1.641 1c.531 0 1.297-.203 1.734-1.156.313-.687.359-1.469.359-2.25zM2.093 6.641c-.391 0-.984-.25-1.156-1.203C.828 4.844.828 3.922.828 3.328L.906 1.5C1.093.313 1.843.219 2.093.219c.328 0 .984.188 1.172 1.172.109.563.109 1.313.109 1.938 0 .75 0 1.422-.109 2.063-.156.953-.719 1.25-1.172 1.25zm0 0"/><path id="K" d="M11.327 4.641c0-1.187-.812-2.187-1.891-2.187-.469 0-.906.156-1.266.516V1.016c.203.063.531.125.844.125 1.234 0 1.938-.906 1.938-1.031 0-.062-.031-.109-.109-.109 0 0-.031 0-.078.031a3.22 3.22 0 0 1-1.359.297c-.391 0-.859-.078-1.328-.281-.078-.031-.094-.031-.109-.031-.109 0-.109.078-.109.234v2.953c0 .172 0 .25.141.25.078 0 .094-.016.141-.078.109-.156.469-.703 1.281-.703.516 0 .766.453.844.641.156.375.188.75.188 1.25 0 .359 0 .953-.25 1.375-.234.391-.609.641-1.062.641-.719 0-1.297-.531-1.469-1.109.031 0 .063.016.172.016a.48.48 0 0 0 .5-.484c0-.25-.172-.5-.5-.5-.141 0-.484.078-.484.531 0 .859.688 1.828 1.797 1.828 1.156 0 2.172-.953 2.172-2.219zm0 0"/></defs></svg>