<?xml version="1.0" encoding="UTF-8" standalone="no"?>
<svg
   version="1.1"
   id="Layer_1"
   x="0px"
   y="0px"
   viewBox="0 0 125 42"
   xml:space="preserve"
   width="125"
   height="42"
   xmlns="http://www.w3.org/2000/svg"
   xmlns:svg="http://www.w3.org/2000/svg"><defs
     id="defs15" /><style
     type="text/css"
     id="style2"><![CDATA[
	.st0{fill:#1A91DA;}
	.st1{fill-rule:evenodd;clip-rule:evenodd;fill:#0D7DBB;}
	.st2{fill:#FFFFFF;}
]]></style><path
     class="st1"
     d="M 120.73771,0 H 4.2622884 C 1.9226075,0 0,2.0623539 0,4.5720966 V 37.427903 C 0,39.937646 1.9226075,42 4.2622884,42 H 120.73771 C 123.07739,42 125,39.937646 125,37.427903 V 4.5720966 C 125,2.0623539 123.07739,0 120.73771,0 Z"
     id="path4"
     style="stroke-width:1.05357" /><path
     d="m 39.35432,11.646226 a 11.471264,11.471264 0 0 1 -3.240633,0.889023 5.6874529,5.6874529 0 0 0 2.481235,-3.1236254 c -1.090917,0.6366554 -2.299989,1.1000944 -3.587065,1.3581974 a 5.6438621,5.6438621 0 0 0 -9.617508,5.141421 c -4.691747,-0.221395 -8.847786,-2.475499 -11.631862,-5.88017 a 5.5314437,5.5314437 0 0 0 -0.763986,2.839138 c 0,1.961586 0.998,3.685717 2.509913,4.69863 a 5.6255081,5.6255081 0 0 1 -2.555798,-0.70663 v 0.06883 a 5.6473035,5.6473035 0 0 0 4.526561,5.537179 5.7310437,5.7310437 0 0 1 -2.537444,0.09751 5.6622161,5.6622161 0 0 0 5.28137,3.919731 11.318697,11.318697 0 0 1 -6.999765,2.414701 c -0.447379,0 -0.893612,-0.02638 -1.342138,-0.07686 a 16.054034,16.054034 0 0 0 8.668834,2.534003 c 10.384936,0 16.057476,-8.59886 16.057476,-16.042564 0,-0.240896 0,-0.481793 -0.01721,-0.722689 a 11.396701,11.396701 0 0 0 2.821932,-2.922878 z"
     id="path849"
     style="fill:#ffffff;fill-opacity:1;stroke-width:1.14713" /><text
     xml:space="preserve"
     style="font-style:normal;font-weight:normal;font-size:24px;line-height:1.25;font-family:sans-serif;letter-spacing:0px;word-spacing:0px;fill:#000000;fill-opacity:1;stroke:none;stroke-width:0.9;stroke-miterlimit:4;stroke-dasharray:none;stroke-opacity:1"
     x="46.967552"
     y="29.400045"
     id="text2274"><tspan
       id="tspan2272"
       x="46.967552"
       y="29.400045"
       style="font-style:normal;font-variant:normal;font-weight:normal;font-stretch:normal;font-size:24px;font-family:'TeX Gyre Heros';-inkscape-font-specification:'TeX Gyre Heros';fill:#ffffff;fill-opacity:1;stroke:none;stroke-width:0.9;stroke-miterlimit:4;stroke-dasharray:none;stroke-opacity:1">Tweet</tspan></text></svg>
