<svg xmlns="http://www.w3.org/2000/svg" width="251.373" height="304.189" xmlns:v="https://vecta.io/nano"><style><![CDATA[.B{stroke-width:.1}.C{stroke:#0062ff}.D{stroke-width:2}.E{stroke:#fff}]]></style><path d="M38.773 282.35h15.802" class="C D"/><g class="B E"><circle cx="38.773" cy="282.35" r="3.3"/><circle cx="54.575" cy="282.35" r="3.3"/></g><g class="C D"><path d="M38.773 282.35l-15.802-14.473m31.604 14.473l15.802-14.473"/><path d="M70.378 267.877H86.18"/></g><g class="B E"><circle cx="38.773" cy="282.35" r="3.3"/><circle cx="54.575" cy="282.35" r="3.3"/><circle cx="22.971" cy="267.877" r="3.3"/><circle cx="70.378" cy="267.877" r="3.3"/><circle cx="86.18" cy="267.877" r="3.3"/></g><path d="M22.971 267.877v-14.473m63.209 14.473l15.802-14.473" class="C D"/><g class="B E"><circle cx="22.971" cy="267.877" r="3.3"/><circle cx="70.378" cy="267.877" r="3.3"/><circle cx="86.18" cy="267.877" r="3.3"/><circle cx="22.971" cy="253.404" r="3.3"/><circle cx="101.982" cy="253.404" r="3.3"/></g><path d="M22.971 253.404v-14.473m79.011 14.473v-14.473" class="C D"/><g class="B E"><circle cx="22.971" cy="253.404" r="3.3"/><circle cx="101.982" cy="253.404" r="3.3"/><circle cx="22.971" cy="238.931" r="3.3"/><circle cx="101.982" cy="238.931" r="3.3"/></g><path d="M22.971 238.931l15.802-14.473m63.209 14.473l15.802-14.473" class="C D"/><g class="B E"><circle cx="22.971" cy="238.931" r="3.3"/><circle cx="101.982" cy="238.931" r="3.3"/><circle cx="38.773" cy="224.459" r="3.3"/><circle cx="117.785" cy="224.459" r="3.3"/></g><path d="M38.773 224.459l15.802-14.473m63.21 14.473v-14.473" class="C D"/><g class="B E"><circle cx="38.773" cy="224.459" r="3.3"/><circle cx="117.785" cy="224.459" r="3.3"/><circle cx="54.575" cy="209.986" r="3.3"/><circle cx="117.785" cy="209.986" r="3.3"/></g><path d="M54.575 209.986l15.802-14.473m47.408 14.473v-14.473" class="C D"/><g class="B E"><circle cx="54.575" cy="209.986" r="3.3"/><circle cx="117.785" cy="209.986" r="3.3"/><circle cx="70.378" cy="195.513" r="3.3"/><circle cx="117.785" cy="195.513" r="3.3"/></g><path d="M70.378 195.513L86.18 181.04m31.605 14.473l-15.802-14.473" class="C D"/><g class="B E"><circle cx="70.378" cy="195.513" r="3.3"/><circle cx="117.785" cy="195.513" r="3.3"/><circle cx="86.18" cy="181.04" r="3.3"/><circle cx="101.982" cy="181.04" r="3.3"/></g><path d="M86.18 181.04l15.802-14.473m0 14.473v-14.473" class="C D"/><g class="B E"><circle cx="86.18" cy="181.04" r="3.3"/><circle cx="101.982" cy="181.04" r="3.3"/><circle cx="101.982" cy="166.568" r="3.3"/></g><path d="M101.982 166.568v-14.473" class="C D"/><g class="B E"><circle cx="101.982" cy="166.568" r="3.3"/><circle cx="101.982" cy="152.095" r="3.3"/></g><g class="C D"><path d="M101.982 152.095l15.802-14.473"/><path d="M101.982 137.622h15.802"/><path d="M117.785 137.622h15.802"/></g><g class="B E"><circle cx="101.982" cy="152.095" r="3.3"/><circle cx="101.982" cy="137.622" r="3.3"/><circle cx="117.785" cy="137.622" r="3.3"/><circle cx="133.587" cy="137.622" r="3.3"/></g><g class="C D"><path d="M101.982 137.622L86.18 123.15m47.407 14.472l15.802-14.473"/><path d="M149.39 123.15h15.802"/></g><g class="B E"><circle cx="101.982" cy="137.622" r="3.3"/><circle cx="117.785" cy="137.622" r="3.3"/><circle cx="133.587" cy="137.622" r="3.3"/><circle cx="86.18" cy="123.15" r="3.3"/><circle cx="149.39" cy="123.15" r="3.3"/><circle cx="165.192" cy="123.15" r="3.3"/></g><path d="M86.18 123.15v-14.473m79.012 14.473l15.802-14.473" class="C D"/><g class="B E"><circle cx="86.18" cy="123.15" r="3.3"/><circle cx="149.39" cy="123.15" r="3.3"/><circle cx="165.192" cy="123.15" r="3.3"/><circle cx="86.18" cy="108.677" r="3.3"/><circle cx="180.994" cy="108.677" r="3.3"/></g><path d="M86.18 108.677V94.204m94.814 14.473V94.204" class="C D"/><g class="B E"><circle cx="86.18" cy="108.677" r="3.3"/><circle cx="180.994" cy="108.677" r="3.3"/><circle cx="86.18" cy="94.204" r="3.3"/><circle cx="180.994" cy="94.204" r="3.3"/></g><path d="M86.18 94.204V79.731m94.814 14.473l15.802-14.473" class="C D"/><g class="B E"><circle cx="86.18" cy="94.204" r="3.3"/><circle cx="180.994" cy="94.204" r="3.3"/><circle cx="86.18" cy="79.731" r="3.3"/><circle cx="196.797" cy="79.731" r="3.3"/></g><path d="M86.18 79.731l15.802-14.473m94.815 14.473V65.259" class="C D"/><g class="B E"><circle cx="86.18" cy="79.731" r="3.3"/><circle cx="196.797" cy="79.731" r="3.3"/><circle cx="101.982" cy="65.259" r="3.3"/><circle cx="196.797" cy="65.259" r="3.3"/></g><g class="C D"><path d="M101.982 65.259l15.802-14.473"/><path d="M117.785 50.786h15.802"/><path d="M133.587 50.786h15.802"/><path d="M149.39 50.786h15.802"/><path d="M165.192 50.786h15.802m15.803 14.473l-15.802-14.473"/><path d="M196.797 65.259l15.802-14.473"/></g><g class="B E"><circle cx="101.982" cy="65.259" r="3.3"/><circle cx="196.797" cy="65.259" r="3.3"/><circle cx="117.785" cy="50.786" r="3.3"/><circle cx="133.587" cy="50.786" r="3.3"/><circle cx="149.39" cy="50.786" r="3.3"/><circle cx="165.192" cy="50.786" r="3.3"/><circle cx="180.994" cy="50.786" r="3.3"/><circle cx="212.599" cy="50.786" r="3.3"/></g><path d="M212.599 50.786V36.313" class="C D"/><g class="B E"><circle cx="117.785" cy="50.786" r="3.3"/><circle cx="133.587" cy="50.786" r="3.3"/><circle cx="149.39" cy="50.786" r="3.3"/><circle cx="165.192" cy="50.786" r="3.3"/><circle cx="180.994" cy="50.786" r="3.3"/><circle cx="212.599" cy="50.786" r="3.3"/><circle cx="212.599" cy="36.313" r="3.3"/></g><path d="M212.599 36.313l15.802-14.473" class="C D"/><g class="B E"><circle cx="212.599" cy="36.313" r="3.3"/><circle cx="228.401" cy="21.84" r="3.3"/><circle cx="228.401" cy="21.84" r="3.3"/></g><path d="M.05.05h251.273v304.089H.05z" fill="none" stroke="#000" stroke-opacity=".5" class="B"/></svg>