<svg id="tda-example-viz" width="100%" viewBox="0 0 1024 380" xmlns="http://www.w3.org/2000/svg" display="none">
    <!--G{} -->
    <g fill="none">
      <g font-size="16px" style="font-family:sans-serif" text-anchor="end">
        <path d="M40 358.4h-6" stroke="#000">
        </path>
        <text x="-9" dy=".32em" style="white-space:nowrap; fill:#000;" transform="translate(40 358.4)">0</text>
        <path d="M40 329.45h-6" stroke="#000">
        </path>
        <text x="-9" dy=".32em" style="white-space:nowrap; fill:#000;" transform="translate(40 329.45)">2</text>
        <path d="M40 300.51h-6" stroke="#000">
        </path>
        <text x="-9" dy=".32em" style="white-space:nowrap; fill:#000;" transform="translate(40 300.51)">4</text>
        <path d="M40 271.56h-6" stroke="#000">
        </path>
        <text x="-9" dy=".32em" style="white-space:nowrap; fill:#000;" transform="translate(40 271.56)">6</text>
        <path d="M40 242.62h-6" stroke="#000">
        </path>
        <text x="-9" dy=".32em" style="white-space:nowrap; fill:#000;" transform="translate(40 242.62)">8</text>
        <path d="M40 213.67h-6" stroke="#000">
        </path>
        <text x="-9" dy=".32em" style="white-space:nowrap; fill:#000;" transform="translate(40 213.67)">10</text>
        <path d="M40 184.73h-6" stroke="#000">
        </path>
        <text x="-9" dy=".32em" style="white-space:nowrap; fill:#000;" transform="translate(40 184.73)">12</text>
        <path d="M40 155.78h-6" stroke="#000">
        </path>
        <text x="-9" dy=".32em" style="white-space:nowrap; fill:#000;" transform="translate(40 155.78)">14</text>
        <path d="M40 126.84h-6" stroke="#000">
        </path>
        <text x="-9" dy=".32em" style="white-space:nowrap; fill:#000;" transform="translate(40 126.84)">16</text>
        <path d="M40 97.89h-6" stroke="#000">
        </path>
        <text x="-9" dy=".32em" style="white-space:nowrap; fill:#000;" transform="translate(40 97.89)">18</text>
        <path d="M40 68.94h-6" stroke="#000">
        </path>
        <text x="-9" dy=".32em" style="white-space:nowrap; fill:#000;" transform="translate(40 68.94)">20</text>
        <path d="M40 40h-6" stroke="#000">
        </path>
        <text x="-9" dy=".32em" style="white-space:nowrap; fill:#000;" transform="translate(40 40)">22</text>
      </g>
      <path d="M40 40h268.64v318.4H40zm328.64 0h268.64v318.4H368.64zm308.64 0H1004v72.8H677.28zm0 112.8H1004v72.8H677.28z" stroke-width=".5" stroke-opacity=".8" stroke="#000">
      </path>
    </g>
    <path d="M368.64 329.45h268.64m-268.64-28.94h268.64m-268.64-28.95h268.64m-268.64-28.94h268.64m-268.64-28.95h268.64m-268.64-28.94h268.64m-268.64-28.95h268.64m-268.64-28.94h268.64M368.64 97.89h268.64M368.64 68.94h268.64" stroke="#d3d3d3">
    </path>
    <g fill="none" font-size="16" style="font-family:sans-serif">
      <g text-anchor="end">
        <path d="M368.64 358.4h-6" stroke="#000">
        </path>
        <text x="-9" dy=".32em" style="white-space:nowrap; fill:#000;" transform="translate(368.64 358.4)">0</text>
        <path d="M368.64 329.45h-6" stroke="#000">
        </path>
        <text x="-9" dy=".32em" style="white-space:nowrap; fill:#000;" transform="translate(368.64 329.45)">2</text>
        <path d="M368.64 300.51h-6" stroke="#000">
        </path>
        <text x="-9" dy=".32em" style="white-space:nowrap; fill:#000;" transform="translate(368.64 300.51)">4</text>
        <path d="M368.64 271.56h-6" stroke="#000">
        </path>
        <text x="-9" dy=".32em" style="white-space:nowrap; fill:#000;" transform="translate(368.64 271.56)">6</text>
        <path d="M368.64 242.62h-6" stroke="#000">
        </path>
        <text x="-9" dy=".32em" style="white-space:nowrap; fill:#000;" transform="translate(368.64 242.62)">8</text>
        <path d="M368.64 213.67h-6" stroke="#000">
        </path>
        <text x="-9" dy=".32em" style="white-space:nowrap; fill:#000;" transform="translate(368.64 213.67)">10</text>
        <path d="M368.64 184.73h-6" stroke="#000">
        </path>
        <text x="-9" dy=".32em" style="white-space:nowrap; fill:#000;" transform="translate(368.64 184.73)">12</text>
        <path d="M368.64 155.78h-6" stroke="#000">
        </path>
        <text x="-9" dy=".32em" style="white-space:nowrap; fill:#000;" transform="translate(368.64 155.78)">14</text>
        <path d="M368.64 126.84h-6" stroke="#000">
        </path>
        <text x="-9" dy=".32em" style="white-space:nowrap; fill:#000;" transform="translate(368.64 126.84)">16</text>
        <path d="M368.64 97.89h-6" stroke="#000">
        </path>
        <text x="-9" dy=".32em" style="white-space:nowrap; fill:#000;" transform="translate(368.64 97.89)">18</text>
        <path d="M368.64 68.94h-6" stroke="#000">
        </path>
        <text x="-9" dy=".32em" style="white-space:nowrap; fill:#000;" transform="translate(368.64 68.94)">20</text>
        <path d="M368.64 40h-6" stroke="#000">
        </path>
        <text x="-9" dy=".32em" style="white-space:nowrap; fill:#000;" transform="translate(368.64 40)">22</text>
      </g>
      <g font-size="16px" style="font-family:sans-serif;text-anchor:middle;">
        <path d="M677.28 118.8v-6H1004v6m-326.72-6v6" stroke="#000">
        </path>
        <text y="9" dy=".71em" style="white-space:nowrap; fill:#000;" transform="translate(677.28 112.8)">0</text>
        <path d="M706.98 112.8v6" stroke="#000">
        </path>
        <text y="9" dy=".71em" style="white-space:nowrap; fill:#000;" transform="translate(706.98 112.8)">2</text>
        <path d="M736.68 112.8v6" stroke="#000">
        </path>
        <text y="9" dy=".71em" style="white-space:nowrap; fill:#000;" transform="translate(736.68 112.8)">4</text>
        <path d="M766.38 112.8v6" stroke="#000">
        </path>
        <text y="9" dy=".71em" style="white-space:nowrap; fill:#000;" transform="translate(766.38 112.8)">6</text>
        <path d="M796.09 112.8v6" stroke="#000">
        </path>
        <text y="9" dy=".71em" style="white-space:nowrap; fill:#000;" transform="translate(796.09 112.8)">8</text>
        <path d="M825.79 112.8v6" stroke="#000">
        </path>
        <text y="9" dy=".71em" style="white-space:nowrap; fill:#000;" transform="translate(825.79 112.8)">10</text>
        <path d="M855.49 112.8v6" stroke="#000">
        </path>
        <text y="9" dy=".71em" style="white-space:nowrap; fill:#000;" transform="translate(855.49 112.8)">12</text>
        <path d="M885.2 112.8v6" stroke="#000">
        </path>
        <text y="9" dy=".71em" style="white-space:nowrap; fill:#000;" transform="translate(885.2 112.8)">14</text>
        <path d="M914.9 112.8v6" stroke="#000">
        </path>
        <text y="9" dy=".71em" style="white-space:nowrap; fill:#000;" transform="translate(914.9 112.8)">16</text>
        <path d="M944.6 112.8v6" stroke="#000">
        </path>
        <text y="9" dy=".71em" style="white-space:nowrap; fill:#000;" transform="translate(944.6 112.8)">18</text>
        <path d="M974.3 112.8v6" stroke="#000">
        </path>
        <text y="9" dy=".71em" style="white-space:nowrap; fill:#000;" transform="translate(974.3 112.8)">20</text>
        <path d="M1004 112.8v6" stroke="#000">
        </path>
        <text y="9" dy=".71em" style="white-space:nowrap; fill:#000;" transform="translate(1004 112.8)">22</text>
      </g>
    </g>
    <path d="M706.98 40v72.8m29.7-72.8v72.8m29.7-72.8v72.8m29.7-72.8v72.8m29.7-72.8v72.8M855.5 40v72.8M885.2 40v72.8M914.9 40v72.8M944.6 40v72.8M974.3 40v72.8" stroke="#d3d3d3">
    </path>
    <g fill="none" font-size="16px" style="font-family:sans-serif;text-anchor:middle;">
      <path d="M677.28 231.6v-6H1004v6m-326.72-6v6" stroke="#000">
      </path>
      <text y="9" dy=".71em" style="white-space:nowrap; fill:#000;" transform="translate(677.28 225.6)">0</text>
      <path d="M706.98 225.6v6" stroke="#000">
      </path>
      <text y="9" dy=".71em" style="white-space:nowrap; fill:#000;" transform="translate(706.98 225.6)">2</text>
      <path d="M736.68 225.6v6" stroke="#000">
      </path>
      <text y="9" dy=".71em" style="white-space:nowrap; fill:#000;" transform="translate(736.68 225.6)">4</text>
      <path d="M766.38 225.6v6" stroke="#000">
      </path>
      <text y="9" dy=".71em" style="white-space:nowrap; fill:#000;" transform="translate(766.38 225.6)">6</text>
      <path d="M796.09 225.6v6" stroke="#000">
      </path>
      <text y="9" dy=".71em" style="white-space:nowrap; fill:#000;" transform="translate(796.09 225.6)">8</text>
      <path d="M825.79 225.6v6" stroke="#000">
      </path>
      <text y="9" dy=".71em" style="white-space:nowrap; fill:#000;" transform="translate(825.79 225.6)">10</text>
      <path d="M855.49 225.6v6" stroke="#000">
      </path>
      <text y="9" dy=".71em" style="white-space:nowrap; fill:#000;" transform="translate(855.49 225.6)">12</text>
      <path d="M885.2 225.6v6" stroke="#000">
      </path>
      <text y="9" dy=".71em" style="white-space:nowrap; fill:#000;" transform="translate(885.2 225.6)">14</text>
      <path d="M914.9 225.6v6" stroke="#000">
      </path>
      <text y="9" dy=".71em" style="white-space:nowrap; fill:#000;" transform="translate(914.9 225.6)">16</text>
      <path d="M944.6 225.6v6" stroke="#000">
      </path>
      <text y="9" dy=".71em" style="white-space:nowrap; fill:#000;" transform="translate(944.6 225.6)">18</text>
      <path d="M974.3 225.6v6" stroke="#000">
      </path>
      <text y="9" dy=".71em" style="white-space:nowrap; fill:#000;" transform="translate(974.3 225.6)">20</text>
      <path d="M1004 225.6v6" stroke="#000">
      </path>
      <text y="9" dy=".71em" style="white-space:nowrap; fill:#000;" transform="translate(1004 225.6)">22</text>
    </g>
    <path d="M706.98 152.8v72.8m29.7-72.8v72.8m29.7-72.8v72.8m29.7-72.8v72.8m29.7-72.8v72.8m29.71-72.8v72.8m29.7-72.8v72.8m29.7-72.8v72.8m29.7-72.8v72.8m29.7-72.8v72.8" stroke="#d3d3d3">
    </path>
    <path id="tda-example-label-y" d="M680 299.38h50" stroke="red" stroke-width="2">
    </path>
    <path id="tda-example-viz-labels" d="M379.63 11.71v-8.8h6.04c3.38 0 3.96 2.66 3.96 4.17 0 2.55-1.57 4.63-4.8 4.63zm9 .58c3.6-.68 5.74-2.66 5.74-5.21 0-3.08-2.92-5.73-8.23-5.73H371.7V2.9h3.6v19.7h-3.6v1.56h15.42c5.52 0 8.28-2.92 8.28-6.2 0-3.17-2.81-5.41-6.77-5.67zm-2.86 10.3h-6.14v-9.68h6.46c.67 0 2.24 0 3.38 1.4a6.18 6.18 0 0 1 1.1 3.65c0 .37 0 4.64-4.8 4.64zM57.32 2c-.37-.83-.73-.83-1.3-.83-.94 0-1.1.26-1.3.83l-8.24 20c-.2.52-.31.78-2.81.78h-.73v1.56l3.9-.1c1.31 0 3.13 0 4.38.1v-1.56c-.05 0-2.97 0-2.97-.42 0-.05.1-.36.16-.41l1.67-4.01h8.9l1.98 4.84H57.8v1.56c1.3-.1 4.42-.1 5.88-.1 1.3 0 4.22 0 5.42.1v-1.56h-3.23zM54.5 7.16l3.8 9.21h-7.6zm651.55-5.24c0-.62 0-.94-.63-.94-.31 0-.36.1-.62.32l-2.2 1.98a10.1 10.1 0 0 0-6.55-2.3c-8.28 0-13.34 4.95-13.34 11.77 0 6.83 5.06 11.78 13.34 11.78 6.25 0 10-4.07 10-7.92 0-.68-.26-.68-.84-.68-.41 0-.73 0-.73.57-.26 4.43-4.27 6.46-7.6 6.46-2.6 0-5.42-.78-7.13-2.81-1.57-1.93-1.98-4.37-1.98-7.4 0-1.87.1-5.41 2.24-7.65 2.13-2.19 5.05-2.55 6.77-2.55 3.59 0 6.72 2.55 7.44 6.77.1.62.16.67.89.67.88 0 .94-.05.94-.93zM650.2 84.74c-.03.04-.1.29-.1.32 0 .28.32.28.5.28.38 0 .38-.07.5-.47.07-.31 1.25-5.1 1.28-5.16.85 1.4 2.38 2 3.97 2 4 0 6.25-3.06 6.25-5.68 0-1.38-.62-2.13-1.28-2.63a4.67 4.67 0 0 0 1.53-3.28c0-1.69-1.25-2.66-3.12-2.66a7.03 7.03 0 0 0-6.5 5.1zm9.03-11.28c-.5.35-.97.35-1.25.35-.1 0-.97 0-.97-.16 0-.31.97-.31 1.25-.31.34 0 .6 0 .97.12zm.65-.68c-.65-.16-1.18-.16-1.59-.16-.62 0-2.25 0-2.25 1.06 0 .84 1.22.84 1.9.84.35 0 1.23 0 2.13-.37.16.28.22.69.22 1.03 0 .72-.5 3.13-1.12 4.16a3.3 3.3 0 0 1-2.85 1.65c-1.87 0-3.4-1.12-3.4-2.9 0-.4.09-.85.12-1.03l1.19-4.66c.62-2.19 3.03-4.22 5.4-4.22.75 0 1.2.38 1.2 1.13 0 .62-.48 2.68-.95 3.46zM671.2 80c0-1.72-.18-4.72-3.74-4.72-3.57 0-3.75 3.03-3.75 4.72 0 1.75.22 4.6 3.75 4.6s3.75-2.82 3.75-4.6zm-3.74 3.97a1.8 1.8 0 0 1-1.19-.44c-.38-.34-.63-.53-.63-3.72 0-.93 0-2.06.16-2.71.22-.9 1.1-1.16 1.66-1.16.53 0 1.43.22 1.65 1.19.16.65.16 1.81.16 2.68 0 1 0 2-.13 2.79-.21 1.12-1.15 1.37-1.68 1.37zm-16.98 113.56c-.03.03-.09.28-.09.32 0 .28.31.28.5.28.38 0 .38-.06.5-.47.06-.31 1.25-5.1 1.28-5.16.84 1.4 2.38 2 3.97 2 4 0 6.25-3.06 6.25-5.68 0-1.38-.63-2.13-1.28-2.63a4.67 4.67 0 0 0 1.53-3.28c0-1.69-1.25-2.66-3.13-2.66a7.03 7.03 0 0 0-6.5 5.1zm9.03-11.28c-.5.35-.96.35-1.25.35-.09 0-.96 0-.96-.16 0-.31.96-.31 1.25-.31.34 0 .59 0 .96.12zm.66-.69c-.66-.15-1.19-.15-1.6-.15-.62 0-2.24 0-2.24 1.06 0 .85 1.22.85 1.9.85.35 0 1.22 0 2.13-.38.15.28.22.69.22 1.03 0 .72-.5 3.13-1.13 4.16-.62 1-1.6 1.65-2.84 1.65-1.88 0-3.4-1.12-3.4-2.9 0-.4.09-.85.12-1.03l1.18-4.66c.63-2.19 3.03-4.22 5.41-4.22.75 0 1.19.38 1.19 1.13 0 .62-.47 2.68-.94 3.46zm8.61 3.02c0-.5-.09-.5-.68-.5-.88.72-2 .91-3.13.91h-.34v.78h.34a7.9 7.9 0 0 0 2-.28v6.97h-2.19v.78c.66-.06 2.35-.06 3.1-.06l1.5.03c.44 0 1.16 0 1.56.03v-.78h-2.15zm85.8 105.1c.13-.37.13-.4.13-.6 0-.46-.37-.73-.8-.73a1.23 1.23 0 0 0-.9.54l-.38 1.46c-.21.67-.37 1.42-.53 2.14l-1.23 4.8c-.08.37-1.25 2.24-2.99 2.24-1.33 0-1.62-1.18-1.62-2.16 0-1.2.45-2.88 1.33-5.2.4-1.1.53-1.39.53-1.92a2.1 2.1 0 0 0-2.16-2.19c-2.53.03-3.5 3.9-3.5 4.1 0 .27.28.27.28.27.32 0 .32-.08.42-.48.75-2.5 1.79-3.3 2.72-3.3.22 0 .67 0 .67.82 0 .67-.3 1.4-.45 1.87a17.12 17.12 0 0 0-1.55 5.6c0 2.4 1.65 3.18 3.25 3.18a3.7 3.7 0 0 0 2.67-1.2 10.5 10.5 0 0 1-1.7 4.1c-.73.88-1.71 1.68-2.94 1.68-.37 0-1.6-.08-2.03-1.12.4 0 .8 0 1.12-.34.34-.26.54-.65.54-1.07 0-.85-.7-.93-.96-.93-.62 0-1.5.45-1.5 1.7 0 1.34 1.18 2.35 2.83 2.35 2.72 0 5.47-2.4 6.21-5.41zm0 0">
    </path>
</svg>