<?xml version="1.0" encoding="UTF-8" standalone="no"?>
<!-- Created with Inkscape (http://www.inkscape.org/) -->

<svg
   width="194.29297"
   height="149.44536"
   viewBox="0 0 51.40668 39.540751"
   version="1.1"
   id="svg1"
   inkscape:version="1.3.2 (091e20e, 2023-11-25)"
   sodipodi:docname="mc-example.svg"
   xmlns:inkscape="http://www.inkscape.org/namespaces/inkscape"
   xmlns:sodipodi="http://sodipodi.sourceforge.net/DTD/sodipodi-0.dtd"
   xmlns="http://www.w3.org/2000/svg"
   xmlns:svg="http://www.w3.org/2000/svg">
  <sodipodi:namedview
     id="namedview1"
     pagecolor="#ffffff"
     bordercolor="#37c84a"
     borderopacity="1"
     inkscape:showpageshadow="false"
     inkscape:pageopacity="0.0"
     inkscape:pagecheckerboard="0"
     inkscape:deskcolor="#d1d1d1"
     inkscape:document-units="mm"
     showborder="true"
     borderlayer="true"
     inkscape:zoom="2.4945155"
     inkscape:cx="115.0524"
     inkscape:cy="101.02162"
     inkscape:window-width="1920"
     inkscape:window-height="1027"
     inkscape:window-x="0"
     inkscape:window-y="25"
     inkscape:window-maximized="1"
     inkscape:current-layer="layer1" />
  <defs
     id="defs1">
    <clipPath
       clipPathUnits="userSpaceOnUse"
       id="clipPath2">
      <path
         d="M 197.348,207.77 H 596 V 434.543 H 197.348 Z"
         transform="matrix(1.3333333,0,0,1.3333333,-293.33333,-361.18635)"
         id="path2" />
    </clipPath>
    <clipPath
       clipPathUnits="userSpaceOnUse"
       id="clipPath1">
      <path
         d="M 0,0 H 596 V 842 H 0 Z"
         transform="translate(-2.5000001e-6)"
         id="path1" />
    </clipPath>
    <clipPath
       clipPathUnits="userSpaceOnUse"
       id="clipPath4">
      <path
         d="M 197.348,207.77 H 596 V 434.543 H 197.348 Z"
         transform="matrix(1.3333333,0,0,1.3333333,-293.33333,-361.18635)"
         id="path4" />
    </clipPath>
    <clipPath
       clipPathUnits="userSpaceOnUse"
       id="clipPath3">
      <path
         d="M 0,0 H 596 V 842 H 0 Z"
         transform="translate(-2.5000001e-6)"
         id="path3" />
    </clipPath>
    <clipPath
       clipPathUnits="userSpaceOnUse"
       id="clipPath6">
      <path
         d="M 138.258,227.727 H 596 V 485.43 H 138.258 Z"
         transform="matrix(1.3333333,0,0,1.3333333,-293.33333,-361.18635)"
         id="path6" />
    </clipPath>
    <clipPath
       clipPathUnits="userSpaceOnUse"
       id="clipPath5">
      <path
         d="M 0,0 H 596 V 842 H 0 Z"
         transform="translate(-2.5000001e-6)"
         id="path5" />
    </clipPath>
    <clipPath
       clipPathUnits="userSpaceOnUse"
       id="clipPath8">
      <path
         d="M 197.348,207.77 H 596 V 434.543 H 197.348 Z"
         transform="matrix(1.3333333,0,0,1.3333333,-293.33333,-361.18635)"
         id="path8" />
    </clipPath>
    <clipPath
       clipPathUnits="userSpaceOnUse"
       id="clipPath7">
      <path
         d="M 0,0 H 596 V 842 H 0 Z"
         transform="translate(-2.5000001e-6)"
         id="path7" />
    </clipPath>
    <clipPath
       clipPathUnits="userSpaceOnUse"
       id="clipPath10">
      <path
         d="M 186.625,259.57 H 596 V 517.273 H 186.625 Z"
         transform="matrix(1.3333333,0,0,1.3333333,-293.33333,-361.18635)"
         id="path10" />
    </clipPath>
    <clipPath
       clipPathUnits="userSpaceOnUse"
       id="clipPath9">
      <path
         d="M 0,0 H 596 V 842 H 0 Z"
         transform="translate(-2.5000001e-6)"
         id="path9" />
    </clipPath>
    <clipPath
       clipPathUnits="userSpaceOnUse"
       id="clipPath12">
      <path
         d="M 197.348,207.77 H 596 V 434.543 H 197.348 Z"
         transform="matrix(1.3333333,0,0,1.3333333,-293.33333,-361.18635)"
         id="path12" />
    </clipPath>
    <clipPath
       clipPathUnits="userSpaceOnUse"
       id="clipPath11">
      <path
         d="M 0,0 H 596 V 842 H 0 Z"
         transform="translate(-2.5000001e-6)"
         id="path11" />
    </clipPath>
    <clipPath
       clipPathUnits="userSpaceOnUse"
       id="clipPath14">
      <path
         d="M 197.348,207.77 H 596 V 434.543 H 197.348 Z"
         transform="matrix(1.3333333,0,0,1.3333333,-293.33333,-361.18635)"
         id="path14" />
    </clipPath>
    <clipPath
       clipPathUnits="userSpaceOnUse"
       id="clipPath13">
      <path
         d="M 0,0 H 596 V 842 H 0 Z"
         transform="translate(-2.5000001e-6)"
         id="path13" />
    </clipPath>
    <clipPath
       clipPathUnits="userSpaceOnUse"
       id="clipPath16">
      <path
         d="M 186.98,195.59 H 596 V 453.293 H 186.98 Z"
         transform="matrix(1.3333333,0,0,1.3333333,-293.33333,-361.18635)"
         id="path16" />
    </clipPath>
    <clipPath
       clipPathUnits="userSpaceOnUse"
       id="clipPath15">
      <path
         d="M 0,0 H 596 V 842 H 0 Z"
         transform="translate(-2.5000001e-6)"
         id="path15" />
    </clipPath>
    <clipPath
       clipPathUnits="userSpaceOnUse"
       id="clipPath18">
      <path
         d="M 197.898,207.57 H 596 V 434.343 H 197.898 Z"
         transform="matrix(1.3333333,0,0,1.3333333,-293.33333,-361.18635)"
         id="path18" />
    </clipPath>
    <clipPath
       clipPathUnits="userSpaceOnUse"
       id="clipPath17">
      <path
         d="M 0,0 H 596 V 842 H 0 Z"
         transform="translate(-2.5000001e-6)"
         id="path17" />
    </clipPath>
    <clipPath
       clipPathUnits="userSpaceOnUse"
       id="clipPath20">
      <path
         d="M 197.543,207.555 H 596 v 226.77 H 197.543 Z"
         transform="matrix(1.3333333,0,0,1.3333333,-293.33333,-361.18635)"
         id="path20" />
    </clipPath>
    <clipPath
       clipPathUnits="userSpaceOnUse"
       id="clipPath19">
      <path
         d="M 0,0 H 596 V 842 H 0 Z"
         transform="translate(-2.5000001e-6)"
         id="path19" />
    </clipPath>
    <clipPath
       clipPathUnits="userSpaceOnUse"
       id="clipPath21">
      <path
         d="M 197.543,207.555 H 596 v 226.77 H 197.543 Z"
         transform="translate(-2.5000001e-6)"
         id="path21" />
    </clipPath>
    <clipPath
       clipPathUnits="userSpaceOnUse"
       id="clipPath22">
      <path
         d="M 197.543,207.555 H 596 v 226.77 H 197.543 Z"
         transform="translate(-2.5000001e-6)"
         id="path22" />
    </clipPath>
    <clipPath
       clipPathUnits="userSpaceOnUse"
       id="clipPath24">
      <path
         d="M 250.395,196.027 H 596 V 453.73 H 250.395 Z"
         transform="matrix(1.3333333,0,0,1.3333333,-293.33333,-361.18635)"
         id="path24" />
    </clipPath>
    <clipPath
       clipPathUnits="userSpaceOnUse"
       id="clipPath23">
      <path
         d="M 0,0 H 596 V 842 H 0 Z"
         transform="translate(-2.5000001e-6)"
         id="path23" />
    </clipPath>
    <clipPath
       clipPathUnits="userSpaceOnUse"
       id="clipPath26">
      <path
         d="M 197.309,208.012 H 596 v 226.77 H 197.309 Z"
         transform="matrix(1.3333333,0,0,1.3333333,-293.33333,-361.18635)"
         id="path26" />
    </clipPath>
    <clipPath
       clipPathUnits="userSpaceOnUse"
       id="clipPath25">
      <path
         d="M 0,0 H 596 V 842 H 0 Z"
         transform="translate(-2.5000001e-6)"
         id="path25" />
    </clipPath>
    <clipPath
       clipPathUnits="userSpaceOnUse"
       id="clipPath27">
      <path
         d="M 197.309,208.012 H 596 v 226.77 H 197.309 Z"
         transform="translate(-2.5000001e-6)"
         id="path27" />
    </clipPath>
    <clipPath
       clipPathUnits="userSpaceOnUse"
       id="clipPath28">
      <path
         d="M 197.309,208.012 H 596 v 226.77 H 197.309 Z"
         transform="translate(-2.5000001e-6)"
         id="path28" />
    </clipPath>
    <clipPath
       clipPathUnits="userSpaceOnUse"
       id="clipPath30">
      <path
         d="M 250.617,259.57 H 596 V 517.273 H 250.617 Z"
         transform="matrix(1.3333333,0,0,1.3333333,-293.33333,-361.18635)"
         id="path30" />
    </clipPath>
    <clipPath
       clipPathUnits="userSpaceOnUse"
       id="clipPath29">
      <path
         d="M 0,0 H 596 V 842 H 0 Z"
         transform="translate(-2.5000001e-6)"
         id="path29" />
    </clipPath>
    <clipPath
       clipPathUnits="userSpaceOnUse"
       id="clipPath32">
      <path
         d="M 197.531,207.555 H 596 v 226.77 H 197.531 Z"
         transform="matrix(1.3333333,0,0,1.3333333,-293.33333,-361.18635)"
         id="path32" />
    </clipPath>
    <clipPath
       clipPathUnits="userSpaceOnUse"
       id="clipPath31">
      <path
         d="M 0,0 H 596 V 842 H 0 Z"
         transform="translate(-2.5000001e-6)"
         id="path31" />
    </clipPath>
    <clipPath
       clipPathUnits="userSpaceOnUse"
       id="clipPath33">
      <path
         d="M 197.531,207.555 H 596 v 226.77 H 197.531 Z"
         transform="translate(-2.5000001e-6)"
         id="path33" />
    </clipPath>
    <clipPath
       clipPathUnits="userSpaceOnUse"
       id="clipPath34">
      <path
         d="M 197.531,207.555 H 596 v 226.77 H 197.531 Z"
         transform="translate(-2.5000001e-6)"
         id="path34" />
    </clipPath>
    <clipPath
       clipPathUnits="userSpaceOnUse"
       id="clipPath36">
      <path
         d="M 197.172,207.711 H 596 v 226.77 H 197.172 Z"
         transform="matrix(1.3333333,0,0,1.3333333,-293.33333,-361.18635)"
         id="path36" />
    </clipPath>
    <clipPath
       clipPathUnits="userSpaceOnUse"
       id="clipPath35">
      <path
         d="M 0,0 H 596 V 842 H 0 Z"
         transform="translate(-2.5000001e-6)"
         id="path35" />
    </clipPath>
    <clipPath
       clipPathUnits="userSpaceOnUse"
       id="clipPath37">
      <path
         d="M 197.172,207.711 H 596 v 226.77 H 197.172 Z"
         transform="translate(-2.5000001e-6)"
         id="path37" />
    </clipPath>
    <clipPath
       clipPathUnits="userSpaceOnUse"
       id="clipPath38">
      <path
         d="M 197.172,207.711 H 596 v 226.77 H 197.172 Z"
         transform="translate(-2.5000001e-6)"
         id="path38" />
    </clipPath>
    <clipPath
       clipPathUnits="userSpaceOnUse"
       id="clipPath39">
      <path
         d="M 197.172,207.711 H 596 v 226.77 H 197.172 Z"
         transform="translate(-2.5000001e-6)"
         id="path39" />
    </clipPath>
    <clipPath
       clipPathUnits="userSpaceOnUse"
       id="clipPath40">
      <path
         d="M 197.172,207.711 H 596 v 226.77 H 197.172 Z"
         transform="translate(-2.5000001e-6)"
         id="path40" />
    </clipPath>
    <clipPath
       clipPathUnits="userSpaceOnUse"
       id="clipPath42">
      <path
         d="M 196.926,208.551 H 596 V 435.324 H 196.926 Z"
         transform="matrix(1.3333333,0,0,1.3333333,-293.33333,-361.18635)"
         id="path42" />
    </clipPath>
    <clipPath
       clipPathUnits="userSpaceOnUse"
       id="clipPath41">
      <path
         d="M 0,0 H 596 V 842 H 0 Z"
         transform="translate(-2.5000001e-6)"
         id="path41" />
    </clipPath>
  </defs>
  <g
     inkscape:label="Layer 1"
     inkscape:groupmode="layer"
     id="layer1"
     transform="translate(-46.302082,-101.33542)">
    <g
       clip-path="url(#clipPath2)"
       id="g43"
       transform="matrix(0.26458333,0,0,0.26458333,46.259397,100.98696)"
       style="stroke:#000000;stroke-opacity:1">
      <path
         d="m 229.387,327.625 48,-32"
         style="fill:#8b0000;fill-opacity:1;fill-rule:nonzero;stroke:#000000;stroke-width:2.26772;stroke-linecap:butt;stroke-linejoin:miter;stroke-miterlimit:4;stroke-dasharray:none;stroke-opacity:1"
         transform="matrix(1.3333333,0,0,1.3333333,-293.33333,-361.18635)"
         clip-path="url(#clipPath1)"
         id="path43" />
    </g>
    <g
       clip-path="url(#clipPath4)"
       id="g44"
       transform="matrix(0.26458333,0,0,0.26458333,46.259397,100.98696)">
      <path
         d="m 229.387,327.625 48,32"
         style="fill:none;stroke:#000000;stroke-width:1.00063;stroke-linecap:butt;stroke-linejoin:miter;stroke-miterlimit:4;stroke-dasharray:none;stroke-opacity:1"
         transform="matrix(1.3333333,0,0,1.3333333,-293.33333,-361.18635)"
         clip-path="url(#clipPath3)"
         id="path44" />
    </g>
    <g
       clip-path="url(#clipPath6)"
       id="g45"
       transform="matrix(0.26458333,0,0,0.26458333,46.259397,100.98696)">
      <path
         d="m 238.305,327.562 c 0,5.024 -4.071,9.094 -9.094,9.094 -5.02,0 -9.09,-4.07 -9.09,-9.094 0,-5.019 4.07,-9.089 9.09,-9.089 5.023,0 9.094,4.07 9.094,9.089 z"
         style="fill:#ffffff;fill-opacity:1;fill-rule:nonzero;stroke:none"
         transform="matrix(1.3333333,0,0,1.3333333,-293.33333,-361.18635)"
         clip-path="url(#clipPath5)"
         id="path45" />
    </g>
    <g
       clip-path="url(#clipPath8)"
       id="g46"
       transform="matrix(0.26458333,0,0,0.26458333,46.259397,100.98696)"
       style="stroke:#000000;stroke-opacity:1">
      <path
         d="m 277.387,359.625 h 64"
         style="fill:none;stroke:#000000;stroke-width:2.26772;stroke-linecap:butt;stroke-linejoin:miter;stroke-miterlimit:4;stroke-dasharray:none;stroke-opacity:1"
         transform="matrix(1.3333333,0,0,1.3333333,-293.33333,-361.18635)"
         clip-path="url(#clipPath7)"
         id="path46" />
    </g>
    <g
       clip-path="url(#clipPath10)"
       id="g47"
       transform="matrix(0.26458333,0,0,0.26458333,46.259397,100.98696)">
      <path
         d="m 286.676,359.41 c 0,5.02 -4.074,9.09 -9.094,9.09 -5.02,0 -9.09,-4.07 -9.09,-9.09 0,-5.019 4.07,-9.094 9.09,-9.094 5.02,0 9.094,4.075 9.094,9.094 z"
         style="fill:#ffffff;fill-opacity:1;fill-rule:nonzero;stroke:none"
         transform="matrix(1.3333333,0,0,1.3333333,-293.33333,-361.18635)"
         clip-path="url(#clipPath9)"
         id="path47" />
    </g>
    <g
       clip-path="url(#clipPath12)"
       id="g48"
       transform="matrix(0.26458333,0,0,0.26458333,46.259397,100.98696)"
       style="stroke:#000000;stroke-opacity:1">
      <path
         d="m 341.387,295.625 v 64"
         style="fill:none;stroke:#000000;stroke-width:2.26772;stroke-linecap:butt;stroke-linejoin:miter;stroke-miterlimit:4;stroke-dasharray:none;stroke-opacity:1"
         transform="matrix(1.3333333,0,0,1.3333333,-293.33333,-361.18635)"
         clip-path="url(#clipPath11)"
         id="path48" />
    </g>
    <g
       clip-path="url(#clipPath14)"
       id="g49"
       transform="matrix(0.26458333,0,0,0.26458333,46.259397,100.98696)"
       style="fill:#000000;fill-opacity:1;stroke:#000000;stroke-opacity:1">
      <path
         d="m 277.387,295.625 h 64"
         style="fill:#000000;stroke:#000000;stroke-width:2.26772;stroke-linecap:butt;stroke-linejoin:miter;stroke-miterlimit:4;stroke-dasharray:none;stroke-opacity:1;fill-opacity:1"
         transform="matrix(1.3333333,0,0,1.3333333,-293.33333,-361.18635)"
         clip-path="url(#clipPath13)"
         id="path49" />
    </g>
    <g
       clip-path="url(#clipPath16)"
       id="g50"
       transform="matrix(0.26458333,0,0,0.26458333,46.259397,100.98696)">
      <path
         d="m 287.027,295.426 c 0,5.023 -4.07,9.094 -9.089,9.094 -5.024,0 -9.094,-4.071 -9.094,-9.094 0,-5.02 4.07,-9.09 9.094,-9.09 5.019,0 9.089,4.07 9.089,9.09 z"
         style="fill:#ffffff;fill-opacity:1;fill-rule:nonzero;stroke:none"
         transform="matrix(1.3333333,0,0,1.3333333,-293.33333,-361.18635)"
         clip-path="url(#clipPath15)"
         id="path50" />
    </g>
    <g
       clip-path="url(#clipPath18)"
       id="g51"
       transform="matrix(0.26458333,0,0,0.26458333,46.259397,100.98696)">
      <path
         d="m 285.938,295.426 c 0,4.418 -3.583,8 -8,8 -4.418,0 -8,-3.582 -8,-8 0,-4.414 3.582,-8 8,-8 4.417,0 8,3.586 8,8 z"
         style="fill:#ffffff;fill-opacity:1;fill-rule:nonzero;stroke:#000000;stroke-width:1.00063;stroke-linecap:butt;stroke-linejoin:miter;stroke-miterlimit:4;stroke-dasharray:none;stroke-opacity:1"
         transform="matrix(1.3333333,0,0,1.3333333,-293.33333,-361.18635)"
         clip-path="url(#clipPath17)"
         id="path51" />
    </g>
    <g
       clip-path="url(#clipPath20)"
       id="g52"
       transform="matrix(0.26458333,0,0,0.26458333,46.259397,100.98696)">
      <path
         d="m 285.582,359.41 c 0,4.418 -3.582,8 -8,8 -4.418,0 -8,-3.582 -8,-8 0,-4.418 3.582,-8 8,-8 4.418,0 8,3.582 8,8 z"
         style="fill:#ffffff;fill-opacity:1;fill-rule:nonzero;stroke:#000000;stroke-width:1.00063;stroke-linecap:butt;stroke-linejoin:miter;stroke-miterlimit:4;stroke-dasharray:none;stroke-opacity:1"
         transform="matrix(1.3333333,0,0,1.3333333,-293.33333,-361.18635)"
         clip-path="url(#clipPath19)"
         id="path52" />
    </g>
    <path
       d="m 277.875,356.926 c 0,-0.606 -0.293,-0.778 -0.484,-0.778 -0.274,0 -0.551,0.293 -0.551,0.536 0,0.136 0.051,0.207 0.172,0.328 0.242,0.222 0.379,0.5 0.379,0.898 0,0.465 -0.672,2.988 -1.95,2.988 -0.57,0 -0.832,-0.382 -0.832,-0.968 0,-0.606 0.313,-1.418 0.641,-2.332 0.086,-0.192 0.137,-0.344 0.137,-0.551 0,-0.485 -0.344,-0.899 -0.895,-0.899 -1.039,0 -1.453,1.606 -1.453,1.692 0,0.121 0.106,0.121 0.121,0.121 0.121,0 0.121,-0.035 0.172,-0.207 0.328,-1.106 0.797,-1.363 1.125,-1.363 0.086,0 0.273,0 0.273,0.343 0,0.278 -0.121,0.586 -0.187,0.778 -0.484,1.277 -0.621,1.777 -0.621,2.261 0,1.192 0.965,1.368 1.465,1.368 1.851,0 2.488,-3.645 2.488,-4.215 z"
       style="fill:#000000;fill-opacity:1;fill-rule:nonzero;stroke:none"
       transform="matrix(0.35277776,0,0,0.35277776,-31.351712,5.4230728)"
       clip-path="url(#clipPath21)"
       id="path53" />
    <path
       d="m 282.125,361.41 v -0.277 h -0.863 v -3.438 c 0,-0.156 0,-0.226 -0.157,-0.226 -0.101,0 -0.136,0 -0.207,0.121 l -2.554,3.543 v 0.277 h 2.281 v 0.621 c 0,0.278 0,0.364 -0.641,0.364 h -0.207 v 0.273 c 0.399,-0.016 0.879,-0.031 1.157,-0.031 0.293,0 0.777,0.015 1.175,0.031 v -0.273 h -0.207 c -0.64,0 -0.64,-0.086 -0.64,-0.364 v -0.621 z m -1.449,-3.094 v 2.817 h -2.039 z"
       style="fill:#000000;fill-opacity:1;fill-rule:nonzero;stroke:none"
       transform="matrix(0.35277776,0,0,0.35277776,-31.351712,5.4230728)"
       clip-path="url(#clipPath22)"
       id="path54" />
    <g
       clip-path="url(#clipPath24)"
       id="g55"
       transform="matrix(0.26458333,0,0,0.26458333,46.259397,100.98696)">
      <path
         d="m 350.441,295.867 c 0,5.02 -4.07,9.09 -9.093,9.09 -5.02,0 -9.09,-4.07 -9.09,-9.09 0,-5.019 4.07,-9.094 9.09,-9.094 5.023,0 9.093,4.075 9.093,9.094 z"
         style="fill:#ffffff;fill-opacity:1;fill-rule:nonzero;stroke:none"
         transform="matrix(1.3333333,0,0,1.3333333,-293.33333,-361.18635)"
         clip-path="url(#clipPath23)"
         id="path55" />
    </g>
    <g
       clip-path="url(#clipPath26)"
       id="g56"
       transform="matrix(0.26458333,0,0,0.26458333,46.259397,100.98696)">
      <path
         d="m 349.348,295.867 c 0,4.418 -3.582,8 -8,8 -4.418,0 -8,-3.582 -8,-8 0,-4.418 3.582,-8 8,-8 4.418,0 8,3.582 8,8 z"
         style="fill:#ffffff;fill-opacity:1;fill-rule:nonzero;stroke:#000000;stroke-width:1.00063;stroke-linecap:butt;stroke-linejoin:miter;stroke-miterlimit:4;stroke-dasharray:none;stroke-opacity:1"
         transform="matrix(1.3333333,0,0,1.3333333,-293.33333,-361.18635)"
         clip-path="url(#clipPath25)"
         id="path56" />
    </g>
    <path
       d="m 341.746,293.328 c 0,-0.617 -0.301,-0.793 -0.496,-0.793 -0.281,0 -0.562,0.301 -0.562,0.547 0,0.141 0.05,0.211 0.175,0.336 0.246,0.227 0.387,0.512 0.387,0.914 0,0.477 -0.688,3.055 -1.992,3.055 -0.582,0 -0.848,-0.391 -0.848,-0.989 0,-0.617 0.317,-1.445 0.652,-2.382 0.09,-0.196 0.141,-0.352 0.141,-0.563 0,-0.496 -0.351,-0.918 -0.914,-0.918 -1.059,0 -1.484,1.641 -1.484,1.727 0,0.125 0.105,0.125 0.125,0.125 0.121,0 0.121,-0.035 0.175,-0.211 0.336,-1.129 0.813,-1.395 1.149,-1.395 0.086,0 0.281,0 0.281,0.352 0,0.285 -0.125,0.601 -0.195,0.797 -0.492,1.304 -0.633,1.816 -0.633,2.308 0,1.219 0.984,1.395 1.496,1.395 1.891,0 2.543,-3.723 2.543,-4.305 z"
       style="fill:#000000;fill-opacity:1;fill-rule:nonzero;stroke:none"
       transform="matrix(0.35277776,0,0,0.35277776,-31.351712,5.4230728)"
       clip-path="url(#clipPath27)"
       id="path57" />
    <path
       d="m 345.891,297.766 h -0.262 c -0.02,0.179 -0.106,0.636 -0.211,0.707 -0.055,0.054 -0.656,0.054 -0.777,0.054 h -1.45 c 0.832,-0.726 1.114,-0.953 1.571,-1.324 0.582,-0.457 1.129,-0.953 1.129,-1.695 0,-0.953 -0.829,-1.535 -1.832,-1.535 -0.973,0 -1.641,0.691 -1.641,1.414 0,0.386 0.336,0.441 0.422,0.441 0.176,0 0.406,-0.14 0.406,-0.426 0,-0.14 -0.055,-0.422 -0.457,-0.422 0.246,-0.546 0.773,-0.722 1.145,-0.722 0.793,0 1.199,0.617 1.199,1.25 0,0.687 -0.492,1.219 -0.738,1.5 l -1.891,1.89 c -0.086,0.071 -0.086,0.086 -0.086,0.297 h 3.246 z"
       style="fill:#000000;fill-opacity:1;fill-rule:nonzero;stroke:none"
       transform="matrix(0.35277776,0,0,0.35277776,-31.351712,5.4230728)"
       clip-path="url(#clipPath28)"
       id="path58" />
    <g
       clip-path="url(#clipPath30)"
       id="g59"
       transform="matrix(0.26458333,0,0,0.26458333,46.259397,100.98696)">
      <path
         d="m 350.664,359.41 c 0,5.02 -4.07,9.09 -9.094,9.09 -5.019,0 -9.09,-4.07 -9.09,-9.09 0,-5.019 4.071,-9.094 9.09,-9.094 5.024,0 9.094,4.075 9.094,9.094 z"
         style="fill:#ffffff;fill-opacity:1;fill-rule:nonzero;stroke:none"
         transform="matrix(1.3333333,0,0,1.3333333,-293.33333,-361.18635)"
         clip-path="url(#clipPath29)"
         id="path59" />
    </g>
    <g
       clip-path="url(#clipPath32)"
       id="g60"
       transform="matrix(0.26458333,0,0,0.26458333,46.259397,100.98696)">
      <path
         d="m 349.57,359.41 c 0,4.418 -3.582,8 -8,8 -4.418,0 -8,-3.582 -8,-8 0,-4.418 3.582,-8 8,-8 4.418,0 8,3.582 8,8 z"
         style="fill:#ffffff;fill-opacity:1;fill-rule:nonzero;stroke:#000000;stroke-width:1.00063;stroke-linecap:butt;stroke-linejoin:miter;stroke-miterlimit:4;stroke-dasharray:none;stroke-opacity:1"
         transform="matrix(1.3333333,0,0,1.3333333,-293.33333,-361.18635)"
         clip-path="url(#clipPath31)"
         id="path60" />
    </g>
    <path
       d="m 341.93,356.812 c 0,-0.613 -0.297,-0.789 -0.489,-0.789 -0.281,0 -0.562,0.297 -0.562,0.543 0,0.141 0.055,0.211 0.176,0.332 0.246,0.231 0.386,0.508 0.386,0.911 0,0.472 -0.683,3.031 -1.98,3.031 -0.578,0 -0.84,-0.387 -0.84,-0.981 0,-0.613 0.317,-1.437 0.649,-2.363 0.085,-0.195 0.14,-0.351 0.14,-0.562 0,-0.489 -0.351,-0.911 -0.91,-0.911 -1.051,0 -1.473,1.629 -1.473,1.715 0,0.125 0.106,0.125 0.125,0.125 0.121,0 0.121,-0.035 0.172,-0.211 0.336,-1.121 0.809,-1.382 1.141,-1.382 0.086,0 0.277,0 0.277,0.351 0,0.277 -0.121,0.594 -0.191,0.785 -0.489,1.297 -0.629,1.805 -0.629,2.293 0,1.211 0.98,1.383 1.488,1.383 1.871,0 2.52,-3.691 2.52,-4.27 z"
       style="fill:#000000;fill-opacity:1;fill-rule:nonzero;stroke:none"
       transform="matrix(0.35277776,0,0,0.35277776,-31.351712,5.4230728)"
       clip-path="url(#clipPath33)"
       id="path61" />
    <path
       d="m 344.242,360.027 c 0.613,0 1.051,0.418 1.051,1.258 0,0.965 -0.578,1.262 -1.016,1.262 -0.316,0 -1.015,-0.086 -1.332,-0.559 0.367,0 0.457,-0.261 0.457,-0.437 0,-0.246 -0.191,-0.422 -0.437,-0.422 -0.211,0 -0.438,0.141 -0.438,0.457 0,0.734 0.805,1.207 1.75,1.207 1.086,0 1.84,-0.734 1.84,-1.508 0,-0.609 -0.492,-1.223 -1.351,-1.398 0.808,-0.297 1.105,-0.875 1.105,-1.367 0,-0.61 -0.699,-1.067 -1.578,-1.067 -0.855,0 -1.52,0.422 -1.52,1.051 0,0.262 0.172,0.402 0.403,0.402 0.242,0 0.402,-0.176 0.402,-0.386 0,-0.227 -0.16,-0.403 -0.402,-0.418 0.277,-0.332 0.804,-0.422 1.101,-0.422 0.352,0 0.84,0.175 0.84,0.84 0,0.335 -0.105,0.703 -0.316,0.929 -0.242,0.297 -0.473,0.317 -0.856,0.352 -0.195,0.015 -0.211,0.015 -0.246,0.015 -0.015,0 -0.086,0.02 -0.086,0.106 0,0.105 0.071,0.105 0.207,0.105 z"
       style="fill:#000000;fill-opacity:1;fill-rule:nonzero;stroke:none"
       transform="matrix(0.35277776,0,0,0.35277776,-31.351712,5.4230728)"
       clip-path="url(#clipPath34)"
       id="path62" />
    <g
       clip-path="url(#clipPath36)"
       id="g63"
       transform="matrix(0.26458333,0,0,0.26458333,46.259397,100.98696)">
      <path
         d="m 237.211,327.562 c 0,4.418 -3.582,8 -8,8 -4.418,0 -8,-3.582 -8,-8 0,-4.414 3.582,-8 8,-8 4.418,0 8,3.586 8,8 z"
         style="fill:#ffffff;fill-opacity:1;fill-rule:nonzero;stroke:#000000;stroke-width:1.00063;stroke-linecap:butt;stroke-linejoin:miter;stroke-miterlimit:4;stroke-dasharray:none;stroke-opacity:1"
         transform="matrix(1.3333333,0,0,1.3333333,-293.33333,-361.18635)"
         clip-path="url(#clipPath35)"
         id="path63" />
    </g>
    <path
       d="m 229.609,324.949 c 0,-0.621 -0.3,-0.797 -0.496,-0.797 -0.281,0 -0.562,0.301 -0.562,0.547 0,0.141 0.054,0.215 0.176,0.336 0.246,0.231 0.386,0.512 0.386,0.918 0,0.477 -0.687,3.051 -1.992,3.051 -0.582,0 -0.848,-0.387 -0.848,-0.988 0,-0.618 0.321,-1.446 0.653,-2.379 0.09,-0.196 0.144,-0.356 0.144,-0.567 0,-0.492 -0.355,-0.918 -0.918,-0.918 -1.058,0 -1.484,1.641 -1.484,1.731 0,0.125 0.105,0.125 0.125,0.125 0.125,0 0.125,-0.035 0.176,-0.215 0.336,-1.129 0.812,-1.391 1.148,-1.391 0.086,0 0.281,0 0.281,0.352 0,0.281 -0.125,0.598 -0.195,0.793 -0.492,1.305 -0.633,1.816 -0.633,2.312 0,1.215 0.989,1.395 1.5,1.395 1.887,0 2.539,-3.723 2.539,-4.305 z"
       style="fill:#000000;fill-opacity:1;fill-rule:nonzero;stroke:none"
       transform="matrix(0.35277776,0,0,0.35277776,-31.351712,5.4230728)"
       clip-path="url(#clipPath37)"
       id="path64" />
    <path
       d="m 231.004,326.422 c 0.406,0.105 0.637,0.105 0.758,0.105 1.043,0 1.66,-0.703 1.66,-0.828 0,-0.09 -0.055,-0.105 -0.09,-0.105 -0.016,0 -0.035,0 -0.07,0.015 -0.196,0.075 -0.598,0.231 -1.18,0.231 -0.23,0 -0.637,-0.016 -1.148,-0.211 -0.09,-0.035 -0.106,-0.035 -0.106,-0.035 -0.105,0 -0.105,0.09 -0.105,0.211 v 2.312 c 0,0.141 0,0.231 0.121,0.231 0.07,0 0.09,0 0.16,-0.11 0.336,-0.422 0.828,-0.492 1.094,-0.492 0.476,0 0.687,0.371 0.722,0.442 0.141,0.265 0.196,0.562 0.196,1.023 0,0.23 0,0.687 -0.246,1.039 -0.196,0.285 -0.532,0.477 -0.918,0.477 -0.512,0 -1.043,-0.282 -1.235,-0.809 0.297,0.016 0.457,-0.18 0.457,-0.391 0,-0.336 -0.301,-0.386 -0.406,-0.386 0,0 -0.387,0 -0.387,0.421 0,0.708 0.653,1.415 1.586,1.415 1.008,0 1.891,-0.743 1.891,-1.75 0,-0.879 -0.672,-1.692 -1.641,-1.692 -0.355,0 -0.762,0.07 -1.113,0.371 z"
       style="fill:#000000;fill-opacity:1;fill-rule:nonzero;stroke:none"
       transform="matrix(0.35277776,0,0,0.35277776,-31.351712,5.4230728)"
       clip-path="url(#clipPath38)"
       id="path65" />
    <path
       d="m 278.445,292.773 c 0,-0.632 -0.308,-0.816 -0.507,-0.816 -0.29,0 -0.579,0.309 -0.579,0.563 0,0.144 0.055,0.218 0.18,0.343 0.254,0.239 0.399,0.528 0.399,0.946 0,0.488 -0.708,3.136 -2.047,3.136 -0.602,0 -0.871,-0.398 -0.871,-1.015 0,-0.637 0.324,-1.489 0.671,-2.45 0.09,-0.199 0.145,-0.363 0.145,-0.578 0,-0.507 -0.363,-0.945 -0.945,-0.945 -1.086,0 -1.524,1.688 -1.524,1.777 0,0.129 0.11,0.129 0.129,0.129 0.125,0 0.125,-0.039 0.18,-0.218 0.344,-1.161 0.836,-1.434 1.179,-1.434 0.09,0 0.29,0 0.29,0.363 0,0.289 -0.125,0.617 -0.2,0.817 -0.507,1.343 -0.652,1.867 -0.652,2.375 0,1.254 1.016,1.433 1.543,1.433 1.941,0 2.609,-3.828 2.609,-4.426 z"
       style="fill:#000000;fill-opacity:1;fill-rule:nonzero;stroke:none"
       transform="matrix(0.35277776,0,0,0.35277776,-31.351712,5.4230728)"
       clip-path="url(#clipPath39)"
       id="path66" />
    <path
       d="m 281.332,293.656 c 0,-0.218 0,-0.218 -0.238,-0.218 -0.524,0.507 -1.25,0.507 -1.574,0.507 v 0.289 c 0.179,0 0.722,0 1.16,-0.214 v 4.117 c 0,0.269 0,0.379 -0.801,0.379 h -0.309 v 0.289 c 0.149,0 1.145,-0.035 1.434,-0.035 0.254,0 1.269,0.035 1.453,0.035 v -0.289 h -0.309 c -0.816,0 -0.816,-0.11 -0.816,-0.379 z"
       style="fill:#000000;fill-opacity:1;fill-rule:nonzero;stroke:none"
       transform="matrix(0.35277776,0,0,0.35277776,-31.351712,5.4230728)"
       clip-path="url(#clipPath40)"
       id="path67" />
    <g
       clip-path="url(#clipPath42)"
       id="g68"
       transform="matrix(0.26458333,0,0,0.26458333,46.259397,100.98696)"
       style="fill:none;fill-opacity:1;stroke:#808080;stroke-opacity:1">
      <path
         d="m 365.762,325.207 c -8.348,-0.551 -17.055,1.281 -25.137,-1.359 -10.477,-3.957 -19.582,-11.25 -25.434,-20.828 -6.242,-9.036 -10.992,-20.352 -21.324,-25.446 -10.707,-3.578 -22.687,-6.453 -33.734,-2.812 -6.906,2.941 -13.008,9.613 -12.141,17.562 0.074,9.727 3.555,19.66 10.914,26.27 5.004,5.812 10.532,11.105 17.469,14.519 8.313,5.172 17.352,10.051 22.836,18.481 4.609,5.461 9.766,10.687 12.687,17.312 3.879,3.918 4.286,9.707 5.864,14.703"
         style="fill:none;stroke:#808080;stroke-width:2.4;stroke-linecap:butt;stroke-linejoin:miter;stroke-miterlimit:4;stroke-dasharray:7.2, 2.4;stroke-dashoffset:0;stroke-opacity:1;fill-opacity:1"
         transform="matrix(1.3333333,0,0,1.3333333,-293.33333,-361.18635)"
         clip-path="url(#clipPath41)"
         id="path68" />
    </g>
  </g>
</svg>
